<svg xmlns="http://www.w3.org/2000/svg" xmlns:xlink="http://www.w3.org/1999/xlink" width="50.4" height="50.4" viewBox="0 0 50.4 50.4">
  <defs>
    <clipPath id="clip-path">
      <rect id="Rectangle_2347" data-name="Rectangle 2347" width="50.4" height="50.4" fill="#fff"/>
    </clipPath>
  </defs>
  <g id="App_Icon" data-name="App Icon" clip-path="url(#clip-path)">
    <g id="CC6__AppConfig_Light" transform="translate(2.053 2.053)">
      <circle id="Ellipse_184" data-name="Ellipse 184" cx="23.147" cy="23.147" r="23.147" fill="#fff" stroke="#bdb0d0" stroke-width="3.259"/>
      <path id="Path_25518" data-name="Path 25518" d="M34.96,24.6v-.944l2.587-1.971a1.369,1.369,0,0,0,.356-1.807l-2.6-4.49a1.369,1.369,0,0,0-1.738-.589l-3,1.273a10.17,10.17,0,0,0-1.629-.958l-.4-3.217a1.369,1.369,0,0,0-1.369-1.218H21.929A1.369,1.369,0,0,0,20.56,11.9l-.4,3.217a10.171,10.171,0,0,0-1.629.958l-3-1.273a1.369,1.369,0,0,0-1.738.589l-2.6,4.5a1.369,1.369,0,0,0,.356,1.807l2.587,1.971v1.875l-2.587,1.971a1.369,1.369,0,0,0-.356,1.807l2.6,4.49a1.369,1.369,0,0,0,1.738.589l3-1.273a10.17,10.17,0,0,0,1.629.958l.4,3.217a1.369,1.369,0,0,0,1.369,1.218h5.188A1.369,1.369,0,0,0,28.486,37.3l.4-3.217a10.17,10.17,0,0,0,1.629-.958l3,1.273a1.369,1.369,0,0,0,1.738-.589l2.6-4.49a1.369,1.369,0,0,0-.356-1.807l-2.587-1.971A7.281,7.281,0,0,0,34.96,24.6ZM24.516,29.473a4.887,4.887,0,1,1,3.477-1.412,4.873,4.873,0,0,1-3.477,1.412Z" transform="translate(-1.37 -1.453)" fill="#24135f"/>
    </g>
  </g>
</svg>
