<svg xmlns="http://www.w3.org/2000/svg" xmlns:xlink="http://www.w3.org/1999/xlink" width="20" height="20" viewBox="0 0 20 20"><defs><clipPath id="a"><rect width="20" height="20" fill="#9f9f9f" stroke="#9f9f9f" stroke-width="1"/></clipPath></defs><g clip-path="url(#a)"><g transform="translate(0.929 0.666)" fill="#9f9f9f" stroke-miterlimit="10"><path d="M 9.19855785369873 11.54553890228271 C 7.772327899932861 11.54553890228271 6.611998081207275 10.43894863128662 6.611998081207275 9.078768730163574 C 6.611998081207275 7.718588829040527 7.772327899932861 6.611998558044434 9.19855785369873 6.611998558044434 C 10.62539768218994 6.611998558044434 11.78621768951416 7.718588829040527 11.78621768951416 9.078768730163574 C 11.78621768951416 10.43894863128662 10.62539768218994 11.54553890228271 9.19855785369873 11.54553890228271 Z" stroke="none"/><path d="M 9.19855785369873 7.11199951171875 C 8.048027992248535 7.11199951171875 7.111998558044434 7.994289398193359 7.111998558044434 9.078769683837891 C 7.111998558044434 10.16324996948242 8.048027992248535 11.04553985595703 9.19855785369873 11.04553985595703 C 10.34969806671143 11.04553985595703 11.28621864318848 10.16324996948242 11.28621864318848 9.078769683837891 C 11.28621864318848 7.994289398193359 10.34969806671143 7.11199951171875 9.19855785369873 7.11199951171875 M 9.19855785369873 6.11199951171875 C 10.90356826782227 6.11199951171875 12.28621864318848 7.440509796142578 12.28621864318848 9.078769683837891 C 12.28621864318848 10.71702003479004 10.90356826782227 12.04553985595703 9.19855785369873 12.04553985595703 C 7.494647979736328 12.04553985595703 6.111998558044434 10.71702003479004 6.111998558044434 9.078769683837891 C 6.111998558044434 7.440509796142578 7.494647979736328 6.11199951171875 9.19855785369873 6.11199951171875 Z" stroke="none" fill="#9f9f9f"/></g><g transform="translate(0.339 0.338)" fill="#9f9f9f"><path d="M 0.7884494662284851 6.272360324859619 L 0.5000994801521301 6.272360324859619 L 0.5000994801521301 0.5002002716064453 L 6.201719284057617 0.5002002716064453 L 6.201719284057617 0.7381103038787842 L 1.28844952583313 0.7381103038787842 L 0.7884494662284851 0.7381103038787842 L 0.7884494662284851 1.238110303878784 L 0.7884494662284851 6.272360324859619 Z" stroke="none"/><path d="M 9.965896606445312e-05 0.0002002716064453125 L 6.701719284057617 0.0002002716064453125 L 6.701719284057617 1.238110065460205 L 1.288449287414551 1.238110065460205 L 1.288449287414551 6.772360324859619 L 9.965896606445312e-05 6.772360324859619 L 9.965896606445312e-05 0.0002002716064453125 Z" stroke="none" fill="#9f9f9f"/></g><g transform="translate(1.472 0.984)" fill="#9f9f9f"><path d="M 17.94541931152344 17.66628074645996 L 12.24379920959473 17.66628074645996 L 12.24379920959473 17.42837142944336 L 17.15707015991211 17.42837142944336 L 17.65707015991211 17.42837142944336 L 17.65707015991211 16.92837142944336 L 17.65707015991211 12.55890083312988 L 17.94541931152344 12.55890083312988 L 17.94541931152344 17.66628074645996 Z" stroke="none"/><path d="M 18.44541931152344 18.16628074645996 L 11.74379920959473 18.16628074645996 L 11.74379920959473 16.92837142944336 L 17.15707015991211 16.92837142944336 L 17.15707015991211 12.05890083312988 L 18.44541931152344 12.05890083312988 L 18.44541931152344 18.16628074645996 Z" stroke="none" fill="#9f9f9f"/></g><g transform="translate(1.472 0.338)" fill="#9f9f9f"><path d="M 17.94541931152344 6.272360324859619 L 17.65707015991211 6.272360324859619 L 17.65707015991211 1.238110303878784 L 17.65707015991211 0.7381103038787842 L 17.15707015991211 0.7381103038787842 L 12.24379920959473 0.7381103038787842 L 12.24379920959473 0.5002002716064453 L 17.94541931152344 0.5002002716064453 L 17.94541931152344 6.272360324859619 Z" stroke="none"/><path d="M 11.74379920959473 0.0002002716064453125 L 18.44541931152344 0.0002002716064453125 L 18.44541931152344 6.772360324859619 L 17.15707015991211 6.772360324859619 L 17.15707015991211 1.238110065460205 L 11.74379920959473 1.238110065460205 L 11.74379920959473 0.0002002716064453125 Z" stroke="none" fill="#9f9f9f"/></g><g transform="translate(0.339 0.984)" fill="#9f9f9f"><path d="M 6.201719284057617 17.66628074645996 L 0.5000994801521301 17.66628074645996 L 0.5000994801521301 12.55890083312988 L 0.7884494662284851 12.55890083312988 L 0.7884494662284851 16.92837142944336 L 0.7884494662284851 17.42837142944336 L 1.28844952583313 17.42837142944336 L 6.201719284057617 17.42837142944336 L 6.201719284057617 17.66628074645996 Z" stroke="none"/><path d="M 6.701719284057617 18.16628074645996 L 9.94715082924813e-05 18.16628074645996 L 9.94715082924813e-05 12.05890083312988 L 1.28844952583313 12.05890083312988 L 1.28844952583313 16.92837142944336 L 6.701719284057617 16.92837142944336 L 6.701719284057617 18.16628074645996 Z" stroke="none" fill="#9f9f9f"/></g></g></svg>