<svg xmlns="http://www.w3.org/2000/svg" xmlns:xlink="http://www.w3.org/1999/xlink" width="44.8" height="44.8" viewBox="0 0 44.8 44.8">
  <defs>
    <clipPath id="clip-path">
      <rect id="Rectangle_2347" data-name="Rectangle 2347" width="44.8" height="44.8" fill="#fff"/>
    </clipPath>
  </defs>
  <g id="Cash_Advance_Icon" data-name="Cash Advance Icon" clip-path="url(#clip-path)">
    <g id="CC6__CashAdvance_Light" transform="translate(0 5.679)">
      <path id="Rectangle_1864-3" data-name="Rectangle 1864-3" d="M1.73,0h16.4a1.73,1.73,0,0,1,1.73,1.73V30.142a1.73,1.73,0,0,1-1.73,1.73H1.73A1.73,1.73,0,0,1,0,30.142V1.73A1.73,1.73,0,0,1,1.73,0Z" transform="matrix(0.502, -0.865, 0.865, 0.502, 2.259, 17.183)" fill="#10a53d"/>
      <path id="Path_24710" data-name="Path 24710" d="M32.85,20.18,14.762,9.766a.461.461,0,0,0-.6.146,2.887,2.887,0,0,1-3.281,1.123.449.449,0,0,0-.506.157L7.19,16.653a.494.494,0,0,0,.079.618,2.887,2.887,0,0,1,.708,3.37.461.461,0,0,0,.157.584l18.11,10.448a.449.449,0,0,0,.584-.146A2.876,2.876,0,0,1,30.109,30.4a.494.494,0,0,0,.573-.236l3.134-5.426a.483.483,0,0,0-.09-.618,2.876,2.876,0,0,1-.7-3.37A.449.449,0,0,0,32.85,20.18Z" transform="translate(0.472 -4.275)" fill="#65e498"/>
      <g id="Group_19612" data-name="Group 19612" transform="translate(12.706 11.108)">
        <circle id="Ellipse_224" data-name="Ellipse 224" cx="1.348" cy="1.348" r="1.348" transform="translate(13.841 7.988)" fill="#10a53d"/>
        <circle id="Ellipse_225" data-name="Ellipse 225" cx="1.348" cy="1.348" r="1.348" fill="#10a53d"/>
      </g>
      <g id="Group_20218" data-name="Group 20218" transform="translate(17.837 12.933)">
        <g id="Group_19614" data-name="Group 19614" transform="translate(0 0.287)">
          <g id="Group_19613" data-name="Group 19613">
            <path id="Path_24711" data-name="Path 24711" d="M20.135,22.874a1.708,1.708,0,0,0,.741-.7,1.685,1.685,0,0,0,.236-.955h0a2.022,2.022,0,0,0-.393-.977,7,7,0,0,0-.932-.977,2.8,2.8,0,0,1-.73-.831.449.449,0,0,1,0-.36.539.539,0,0,1,.416-.258,1.337,1.337,0,0,1,.843.258,1.314,1.314,0,0,1,.618.618.82.82,0,0,1,0,.494.584.584,0,0,0,.27.652h0a.584.584,0,0,0,.786-.281.337.337,0,0,0,0-.112,1.8,1.8,0,0,0-.337-1.584,3.236,3.236,0,0,0-2.022-1.18,1.7,1.7,0,0,0-1.741.82,1.6,1.6,0,0,0-.213.843,1.786,1.786,0,0,0,.3.876,5.617,5.617,0,0,0,.809.9c.247.225.494.472.719.719a.966.966,0,0,1,.225.438.573.573,0,0,1-.067.337.6.6,0,0,1-.281.247.764.764,0,0,1-.472,0,1.887,1.887,0,0,1-.652-.236,1.921,1.921,0,0,1-.6-.528,1.011,1.011,0,0,1-.236-.55,1.258,1.258,0,0,1,0-.36.584.584,0,0,0-.27-.663h0a.618.618,0,0,0-.8.292.213.213,0,0,0,0,.079,2.011,2.011,0,0,0-.09.73,2.056,2.056,0,0,0,.416,1.123,3.471,3.471,0,0,0,1.123.9,2.775,2.775,0,0,0,1.123.382,1.91,1.91,0,0,0,1.2-.157Z" transform="translate(-16.267 -16.661)" fill="#10a53d"/>
          </g>
        </g>
        <g id="Group_19617" data-name="Group 19617" transform="translate(0.823)">
          <g id="Group_19615" data-name="Group 19615" transform="translate(0 5.489)">
            <path id="Path_24712" data-name="Path 24712" d="M17.295,22.733a.607.607,0,0,1-.213-.82l.18-.315a.6.6,0,0,1,.809-.213.584.584,0,0,1,.225.809l-.18.315a.607.607,0,0,1-.82.225Z" transform="translate(-17.001 -21.305)" fill="#10a53d"/>
          </g>
          <g id="Group_19616" data-name="Group 19616" transform="translate(3.126)">
            <path id="Path_24713" data-name="Path 24713" d="M20.094,17.827a.607.607,0,0,1-.225-.82h0l.18-.3a.6.6,0,0,1,1.034.6l-.18.3a.6.6,0,0,1-.809.225Z" transform="translate(-19.793 -16.405)" fill="#10a53d"/>
          </g>
        </g>
      </g>
      <g id="Group_20222" data-name="Group 20222" transform="translate(11.698 3.502)">
        <g id="Group_19614-2" data-name="Group 19614-2" transform="translate(0 0.164)">
          <g id="Group_19613-2" data-name="Group 19613-2" transform="translate(0 0)">
            <path id="Path_24711-2" data-name="Path 24711-2" d="M11.974,10.259A.528.528,0,0,0,12.187,10a.607.607,0,0,0,.079-.326h0a.6.6,0,0,0-.079-.326,3.011,3.011,0,0,0-.315-.337.843.843,0,0,1-.247-.281.124.124,0,0,1,0-.124.157.157,0,0,1,.135-.09.506.506,0,0,1,.292.09.438.438,0,0,1,.213.213.281.281,0,0,1,0,.169.191.191,0,0,0,.09.213h0a.2.2,0,0,0,.292-.067h0a.528.528,0,0,0,0-.191.663.663,0,0,0-.135-.348.91.91,0,0,0-.326-.326,1.045,1.045,0,0,0-.371-.135.64.64,0,0,0-.348.056.685.685,0,0,0-.247.225.652.652,0,0,0-.067.292.7.7,0,0,0,.1.292,1.82,1.82,0,0,0,.281.315l.236.247a.236.236,0,0,1,.079.146.135.135,0,0,1,0,.112l-.09.09a.427.427,0,0,1-.169,0,.7.7,0,0,1-.213-.079.674.674,0,0,1-.213-.18.4.4,0,0,1-.1-.18.461.461,0,0,1,0-.124.18.18,0,0,0,0-.213h0a.2.2,0,0,0-.27.1h0a.933.933,0,0,0,0,.247.663.663,0,0,0,.146.382,1.371,1.371,0,0,0,.36.315,1,1,0,0,0,.393.124A.528.528,0,0,0,11.974,10.259Z" transform="translate(-10.786 -8.131)" fill="#65e498"/>
          </g>
        </g>
        <g id="Group_19617-2" data-name="Group 19617-2" transform="translate(0.171 0)">
          <g id="Group_19615-2" data-name="Group 19615-2" transform="translate(0 1.927)">
            <path id="Path_24712-2" data-name="Path 24712-2" d="M11.045,10.194a.2.2,0,0,1-.079-.281l.079-.1a.191.191,0,0,1,.27-.079.2.2,0,0,1,.079.281v.1a.2.2,0,0,1-.348.079Z" transform="translate(-10.939 -9.706)" fill="#65e498"/>
          </g>
          <g id="Group_19616-2" data-name="Group 19616-2" transform="translate(1.069)">
            <path id="Path_24713-2" data-name="Path 24713-2" d="M11.987,8.524a.2.2,0,0,1-.067-.27h0V8.142a.213.213,0,0,1,.337-.112.2.2,0,0,1,.067.27l-.056.112a.213.213,0,0,1-.281.112Z" transform="translate(-11.894 -7.985)" fill="#65e498"/>
          </g>
        </g>
      </g>
      <g id="Group_20224" data-name="Group 20224" transform="translate(34.074 16.486)">
        <g id="Group_19614-3" data-name="Group 19614-3" transform="translate(0 0.155)">
          <g id="Group_19613-3" data-name="Group 19613-3">
            <path id="Path_24711-3" data-name="Path 24711-3" d="M31.956,21.766a.652.652,0,0,0,.258-.236.64.64,0,0,0,.045-.3h0a.775.775,0,0,0-.135-.326,2.314,2.314,0,0,0-.326-.337.989.989,0,0,1-.247-.281.157.157,0,0,1,0-.124.146.146,0,0,1,.135-.09.562.562,0,0,1,.292.09.438.438,0,0,1,.213.213.292.292,0,0,1,0,.169.191.191,0,0,0,.1.213h0a.2.2,0,0,0,.27-.09h0a.528.528,0,0,0,0-.191.663.663,0,0,0-.135-.348,1.034,1.034,0,0,0-.315-.27,1.045,1.045,0,0,0-.371-.135.607.607,0,0,0-.348.056.685.685,0,0,0-.247.225.539.539,0,0,0-.067.292.483.483,0,0,0,.1.292,2.348,2.348,0,0,0,.27.315l.247.247a.236.236,0,0,1,.079.146.2.2,0,0,1,0,.112.27.27,0,0,1-.1.09.36.36,0,0,1-.157,0,.562.562,0,0,1-.225-.09.584.584,0,0,1-.157-.18.4.4,0,0,1,0-.225.46.46,0,0,1,0-.124.2.2,0,0,0-.09-.225h0a.213.213,0,0,0-.27.1h0a.618.618,0,0,0,0,.247.741.741,0,0,0,.135.382,1.258,1.258,0,0,0,.371.315,1,1,0,0,0,.393.124.607.607,0,0,0,.281-.056Z" transform="translate(-30.764 -19.716)" fill="#65e498"/>
          </g>
        </g>
        <g id="Group_19617-3" data-name="Group 19617-3" transform="translate(0.153)">
          <g id="Group_19615-3" data-name="Group 19615-3" transform="translate(0 1.864)">
            <path id="Path_24712-3" data-name="Path 24712-3" d="M31.007,21.729a.2.2,0,0,1-.079-.281l.067-.1a.191.191,0,0,1,.27-.079.2.2,0,0,1,.079.281l-.067.1a.191.191,0,0,1-.27.079Z" transform="translate(-30.9 -21.241)" fill="#65e498"/>
          </g>
          <g id="Group_19616-3" data-name="Group 19616-3" transform="translate(1.079)">
            <path id="Path_24713-3" data-name="Path 24713-3" d="M31.97,20.053a.191.191,0,0,1-.079-.27h0l.067-.112a.2.2,0,0,1,.27-.067.191.191,0,0,1,.079.27v.112a.213.213,0,0,1-.337.067Z" transform="translate(-31.864 -19.577)" fill="#65e498"/>
          </g>
        </g>
      </g>
      <g id="Group_20223" data-name="Group 20223" transform="translate(5.598 14.047)">
        <g id="Group_19614-4" data-name="Group 19614-4" transform="translate(0 0.126)">
          <g id="Group_19613-4" data-name="Group 19613-4">
            <path id="Path_24711-4" data-name="Path 24711-4" d="M6.572,19.593a.528.528,0,0,0,.258-.236.506.506,0,0,0,.079-.315h0a.6.6,0,0,0-.135-.326,2.247,2.247,0,0,0-.315-.337.989.989,0,0,1-.247-.258.157.157,0,0,1,0-.124.2.2,0,0,1,.146-.09.494.494,0,0,1,.281.09.393.393,0,0,1,.213.213.281.281,0,0,1,0,.169.191.191,0,0,0,.09.213h0a.191.191,0,0,0,.281-.112h0a.989.989,0,0,0,0-.191.663.663,0,0,0-.135-.348,1.213,1.213,0,0,0-.685-.4.663.663,0,0,0-.36,0,.652.652,0,0,0-.236.225.539.539,0,0,0-.079.292.7.7,0,0,0,.1.292,2.449,2.449,0,0,0,.281.315c.079.079.169.157.247.247a.449.449,0,0,1,.079.146.213.213,0,0,1,0,.112.337.337,0,0,1-.09.09.427.427,0,0,1-.169,0A.7.7,0,0,1,6,19.244a.831.831,0,0,1-.213-.18.393.393,0,0,1-.067-.191.236.236,0,0,1,0-.124.2.2,0,0,0-.1-.225h0a.2.2,0,0,0-.27.1h0a.933.933,0,0,0,0,.247.753.753,0,0,0,.146.382,1.123,1.123,0,0,0,.371.315.9.9,0,0,0,.393.124.506.506,0,0,0,.315-.1Z" transform="translate(-5.339 -17.512)" fill="#65e498"/>
          </g>
        </g>
        <g id="Group_19617-4" data-name="Group 19617-4" transform="translate(0.206)">
          <g id="Group_19615-4" data-name="Group 19615-4" transform="translate(0 1.804)">
            <path id="Path_24712-4" data-name="Path 24712-4" d="M5.617,19.559a.213.213,0,0,1-.067-.281v-.1a.2.2,0,0,1,.337-.112.213.213,0,0,1,.067.281v.1a.2.2,0,0,1-.337.112Z" transform="translate(-5.523 -19.01)" fill="#65e498"/>
          </g>
          <g id="Group_19616-4" data-name="Group 19616-4" transform="translate(1.079)">
            <path id="Path_24713-4" data-name="Path 24713-4" d="M6.58,17.876a.2.2,0,0,1-.067-.27h0v-.112a.213.213,0,0,1,.281-.067.191.191,0,0,1,.079.27l-.067.112A.213.213,0,0,1,6.58,17.876Z" transform="translate(-6.487 -17.4)" fill="#65e498"/>
          </g>
        </g>
      </g>
      <g id="Group_20225" data-name="Group 20225" transform="translate(28.011 26.967)">
        <g id="Group_19614-5" data-name="Group 19614-5" transform="translate(0 0.115)">
          <g id="Group_19613-5" data-name="Group 19613-5">
            <path id="Path_24711-5" data-name="Path 24711-5" d="M26.55,31.129a.528.528,0,0,0,.258-.236.607.607,0,0,0,.079-.326h0a.6.6,0,0,0-.135-.326,2.247,2.247,0,0,0-.315-.337.843.843,0,0,1-.247-.281.124.124,0,0,1,0-.124.157.157,0,0,1,.146-.09.494.494,0,0,1,.281.09.438.438,0,0,1,.213.213.281.281,0,0,1,0,.169.191.191,0,0,0,.09.213h0a.2.2,0,0,0,.27-.09h0a.528.528,0,0,0,0-.191.584.584,0,0,0-.135-.348.91.91,0,0,0-.315-.27,1.045,1.045,0,0,0-.371-.135.64.64,0,0,0-.348,0,.685.685,0,0,0-.247.225.652.652,0,0,0-.067.292.7.7,0,0,0,.1.292,1.82,1.82,0,0,0,.36.348,2.448,2.448,0,0,1,.236.247.236.236,0,0,1,.079.146.135.135,0,0,1,0,.112l-.09.09a.427.427,0,0,1-.169,0,.517.517,0,0,1-.213-.09.528.528,0,0,1-.213-.169.4.4,0,0,1-.079-.191s0-.079,0-.124a.18.18,0,0,0-.09-.225h0a.2.2,0,0,0-.27.1h0a.932.932,0,0,0,0,.247.663.663,0,0,0,.146.382,1.371,1.371,0,0,0,.36.315,1,1,0,0,0,.393.124A.6.6,0,0,0,26.55,31.129Z" transform="translate(-25.351 -29.038)" fill="#65e498"/>
          </g>
        </g>
        <g id="Group_19617-5" data-name="Group 19617-5" transform="translate(0.16 0)">
          <g id="Group_19615-5" data-name="Group 19615-5" transform="translate(0 1.864)">
            <path id="Path_24712-5" data-name="Path 24712-5" d="M25.6,31.088a.2.2,0,0,1-.079-.281l.067-.1a.2.2,0,0,1,.281-.079.213.213,0,0,1,.067.281v.1a.2.2,0,0,1-.337.079Z" transform="translate(-25.494 -30.6)" fill="#65e498"/>
          </g>
          <g id="Group_19616-5" data-name="Group 19616-5" transform="translate(1.092)">
            <path id="Path_24713-5" data-name="Path 24713-5" d="M26.562,29.412a.2.2,0,0,1-.067-.27h0l.056-.112a.213.213,0,0,1,.281-.067.2.2,0,0,1,.067.27l-.056.112a.213.213,0,0,1-.281.067Z" transform="translate(-26.469 -28.935)" fill="#65e498"/>
          </g>
        </g>
      </g>
      <path id="Rectangle_1864-3-2" data-name="Rectangle 1864-3" d="M1.73,0h16.4a1.73,1.73,0,0,1,1.73,1.73V30.142a1.73,1.73,0,0,1-1.73,1.73H1.73A1.73,1.73,0,0,1,0,30.142V1.73A1.73,1.73,0,0,1,1.73,0Z" transform="matrix(0.502, -0.865, 0.865, 0.502, 7.264, 17.327)" fill="#10a53d"/>
      <path id="Path_24710-2" data-name="Path 24710" d="M37.335,20.354,19.236,9.906a.449.449,0,0,0-.584.146,2.887,2.887,0,0,1-3.281,1.123.483.483,0,0,0-.573.236l-3.134,5.381a.472.472,0,0,0,.09.607,2.91,2.91,0,0,1,.7,3.37.461.461,0,0,0,.169.6l18.1,10.448a.472.472,0,0,0,.6-.146,2.876,2.876,0,0,1,3.269-1.123.461.461,0,0,0,.573-.236l3.134-5.415a.494.494,0,0,0-.079-.618A2.887,2.887,0,0,1,37.5,20.9a.449.449,0,0,0-.169-.551Z" transform="translate(1.009 -4.258)" fill="#65e498"/>
      <g id="Group_19612-2" data-name="Group 19612" transform="translate(17.717 11.266)">
        <circle id="Ellipse_224-2" data-name="Ellipse 224" cx="1.348" cy="1.348" r="1.348" transform="translate(13.841 7.988)" fill="#10a53d"/>
        <circle id="Ellipse_225-2" data-name="Ellipse 225" cx="1.348" cy="1.348" r="1.348" fill="#10a53d"/>
      </g>
      <g id="Group_20218-2" data-name="Group 20218" transform="translate(22.759 13.139)">
        <g id="Group_19614-2-2" data-name="Group 19614" transform="translate(0 0.251)">
          <g id="Group_19613-2-2" data-name="Group 19613" transform="translate(0 0)">
            <path id="Path_24711-2-2" data-name="Path 24711" d="M24.619,23.013a1.831,1.831,0,0,0,.753-.708,1.618,1.618,0,0,0,.225-.944h0a1.9,1.9,0,0,0-.393-.977,8.5,8.5,0,0,0-.932-.977c-.562-.517-.7-.741-.719-.82a.371.371,0,0,1,0-.36.483.483,0,0,1,.4-.258,1.4,1.4,0,0,1,.843.247,1.314,1.314,0,0,1,.618.618.831.831,0,0,1,0,.494.607.607,0,0,0,.281.652h0a.584.584,0,0,0,.786-.27.337.337,0,0,0,0-.112,1.988,1.988,0,0,0,0-.573,1.741,1.741,0,0,0-.393-1.011,3.033,3.033,0,0,0-.932-.8,2.82,2.82,0,0,0-1.123-.382A1.719,1.719,0,0,0,23,16.992a1.618,1.618,0,0,0-.708.663,1.46,1.46,0,0,0-.213.831,1.629,1.629,0,0,0,.292.876,5.134,5.134,0,0,0,.809.9,8.808,8.808,0,0,1,.719.73.91.91,0,0,1,.225.438.517.517,0,0,1-.067.337.55.55,0,0,1-.281.247.843.843,0,0,1-.472,0,1.854,1.854,0,0,1-.64-.247,1.8,1.8,0,0,1-.607-.517,1.124,1.124,0,0,1-.236-.551,1.258,1.258,0,0,1,0-.36.6.6,0,0,0-.281-.674h0a.584.584,0,0,0-.786.292v.079a2.247,2.247,0,0,0-.09.73,1.989,1.989,0,0,0,.416,1.123,3.505,3.505,0,0,0,1.123.91,2.932,2.932,0,0,0,1.123.382A1.887,1.887,0,0,0,24.619,23.013Z" transform="translate(-20.662 -16.813)" fill="#10a53d"/>
          </g>
        </g>
        <g id="Group_19617-2-2" data-name="Group 19617" transform="translate(0.914)">
          <g id="Group_19615-2-2" data-name="Group 19615" transform="translate(0 5.44)">
            <path id="Path_24712-2-2" data-name="Path 24712" d="M21.779,22.862a.6.6,0,0,1-.225-.809l.18-.315a.607.607,0,0,1,.82-.213.584.584,0,0,1,.213.809l-.18.315A.6.6,0,0,1,21.779,22.862Z" transform="translate(-21.478 -21.445)" fill="#10a53d"/>
          </g>
          <g id="Group_19616-2-2" data-name="Group 19616" transform="translate(3.173)">
            <path id="Path_24713-2-2" data-name="Path 24713" d="M24.608,17.951a.584.584,0,0,1-.213-.809h0l.18-.315a.6.6,0,0,1,1.022.6l-.18.315a.584.584,0,0,1-.809.213Z" transform="translate(-24.311 -16.588)" fill="#10a53d"/>
          </g>
        </g>
      </g>
      <g id="Group_20222-2" data-name="Group 20222" transform="translate(16.675 3.712)">
        <g id="Group_19614-2-3" data-name="Group 19614-2" transform="translate(0 0.131)">
          <g id="Group_19613-2-3" data-name="Group 19613-2">
            <path id="Path_24711-2-3" data-name="Path 24711-2" d="M16.451,10.375a.584.584,0,0,0,.258-.236.562.562,0,0,0,.079-.326h0a.629.629,0,0,0-.135-.337,2.853,2.853,0,0,0-.315-.36,1.034,1.034,0,0,1-.191-.258.157.157,0,0,1,0-.124.191.191,0,0,1,.146-.079.416.416,0,0,1,.281.079.438.438,0,0,1,.213.213.292.292,0,0,1,0,.169.2.2,0,0,0,.09.225h0a.213.213,0,0,0,.27-.1h0a1.246,1.246,0,0,0,0-.191.629.629,0,0,0-.135-.348,1.213,1.213,0,0,0-.685-.4.573.573,0,0,0-.36.056.584.584,0,0,0-.315.506.7.7,0,0,0,.1.3,1.8,1.8,0,0,0,.281.3l.247.247a.607.607,0,0,1,.079.146.225.225,0,0,1,0,.124.2.2,0,0,1-.09.079.292.292,0,0,1-.169,0,.494.494,0,0,1-.213-.079.652.652,0,0,1-.213-.18.348.348,0,0,1-.067-.18.225.225,0,0,1,0-.124.225.225,0,0,0-.1-.236h0a.191.191,0,0,0-.27.09h0a.876.876,0,0,0,0,.247.8.8,0,0,0,.146.382,1.225,1.225,0,0,0,.371.3.786.786,0,0,0,.393.135A.663.663,0,0,0,16.451,10.375Z" transform="translate(-15.229 -8.288)" fill="#65e498"/>
          </g>
        </g>
        <g id="Group_19617-2-3" data-name="Group 19617-2" transform="translate(0.195)">
          <g id="Group_19615-2-3" data-name="Group 19615-2" transform="translate(0 1.876)">
            <path id="Path_24712-2-3" data-name="Path 24712-2" d="M15.5,10.334a.213.213,0,0,1-.067-.281V9.941a.213.213,0,0,1,.281-.067.2.2,0,0,1,.067.27l-.056.112A.2.2,0,0,1,15.5,10.334Z" transform="translate(-15.404 -9.846)" fill="#65e498"/>
          </g>
          <g id="Group_19616-2-3" data-name="Group 19616-2" transform="translate(1.079)">
            <path id="Path_24713-2-3" data-name="Path 24713-2" d="M16.461,8.659a.213.213,0,0,1-.067-.281h0l.056-.1a.206.206,0,1,1,.36.2l-.067.1a.2.2,0,0,1-.281.079Z" transform="translate(-16.367 -8.172)" fill="#65e498"/>
          </g>
        </g>
      </g>
      <g id="Group_20224-2" data-name="Group 20224" transform="translate(39.009 16.63)">
        <g id="Group_19614-3-2" data-name="Group 19614-3" transform="translate(0 0.133)">
          <g id="Group_19613-3-2" data-name="Group 19613-3">
            <path id="Path_24711-3-2" data-name="Path 24711-3" d="M36.438,21.91a.584.584,0,0,0,.258-.236.663.663,0,0,0,.079-.326h0a.629.629,0,0,0-.135-.337,2.852,2.852,0,0,0-.315-.326.876.876,0,0,1-.247-.292.124.124,0,0,1,0-.124.18.18,0,0,1,.146-.079.416.416,0,0,1,.281.079.494.494,0,0,1,.213.213.292.292,0,0,1,0,.169.2.2,0,0,0,.09.225h0a.2.2,0,0,0,.27-.1h0a.663.663,0,0,0-.124-.539.91.91,0,0,0-.315-.27,1.045,1.045,0,0,0-.371-.135.55.55,0,0,0-.348.056.528.528,0,0,0-.247.225.607.607,0,0,0-.067.281.7.7,0,0,0,.1.3,1.427,1.427,0,0,0,.281.3l.236.247a.27.27,0,0,1,.079.146.157.157,0,0,1,0,.124.2.2,0,0,1-.09.079.292.292,0,0,1-.169,0,.494.494,0,0,1-.213-.079.551.551,0,0,1-.213-.18.371.371,0,0,1-.079-.18s0-.09,0-.124a.2.2,0,0,0-.09-.236h0a.191.191,0,0,0-.27.09h0a.877.877,0,0,0,0,.247.7.7,0,0,0,.146.382,1.326,1.326,0,0,0,.36.3.865.865,0,0,0,.393.135A.685.685,0,0,0,36.438,21.91Z" transform="translate(-35.171 -19.824)" fill="#65e498"/>
          </g>
        </g>
        <g id="Group_19617-3-2" data-name="Group 19617-3" transform="translate(0.229)">
          <g id="Group_19615-3-2" data-name="Group 19615-3" transform="translate(0 1.877)">
            <path id="Path_24712-3-2" data-name="Path 24712-3" d="M35.481,21.858a.191.191,0,0,1-.079-.27l.067-.112a.213.213,0,0,1,.281-.067.2.2,0,0,1,.067.27v.112a.2.2,0,0,1-.337.067Z" transform="translate(-35.375 -21.382)" fill="#65e498"/>
          </g>
          <g id="Group_19616-3-2" data-name="Group 19616-3" transform="translate(1.09)">
            <path id="Path_24713-3-2" data-name="Path 24713-3" d="M36.443,20.195a.213.213,0,0,1-.067-.281h0l.056-.1a.2.2,0,0,1,.281-.079.213.213,0,0,1,.067.281v.1a.2.2,0,0,1-.337.079Z" transform="translate(-36.348 -19.706)" fill="#65e498"/>
          </g>
        </g>
      </g>
      <g id="Group_20223-2" data-name="Group 20223" transform="translate(10.638 14.193)">
        <g id="Group_19614-4-2" data-name="Group 19614-4" transform="translate(0 0.132)">
          <g id="Group_19613-4-2" data-name="Group 19613-4">
            <path id="Path_24711-4-2" data-name="Path 24711-4" d="M11.054,19.734A.629.629,0,0,0,11.3,19.5a.483.483,0,0,0,.079-.326h0a.719.719,0,0,0-.124-.337,2.977,2.977,0,0,0-.326-.326,1.123,1.123,0,0,1-.247-.281.157.157,0,0,1,0-.124.146.146,0,0,1,.135-.09.655.655,0,0,1,.573.292.292.292,0,0,1,0,.169.2.2,0,0,0,.1.225h0a.2.2,0,0,0,.27-.1h0a.562.562,0,0,0,0-.191.629.629,0,0,0-.135-.348,1.034,1.034,0,0,0-.315-.27,1.123,1.123,0,0,0-.371-.135.573.573,0,0,0-.36.056.506.506,0,0,0-.236.225.416.416,0,0,0-.067.281.494.494,0,0,0,.1.3,1.741,1.741,0,0,0,.27.3l.247.247a.472.472,0,0,1,.079.146.225.225,0,0,1,0,.124.18.18,0,0,1-.1.079.247.247,0,0,1-.157,0,.786.786,0,0,1-.225-.09.618.618,0,0,1-.2-.18.326.326,0,0,1-.079-.18.416.416,0,0,1,0-.124.225.225,0,0,0-.09-.236h0a.191.191,0,0,0-.27.09h0a.618.618,0,0,0,0,.247.685.685,0,0,0,.135.382,1.225,1.225,0,0,0,.371.3.865.865,0,0,0,.393.135A.708.708,0,0,0,11.054,19.734Z" transform="translate(-9.839 -17.647)" fill="#65e498"/>
          </g>
        </g>
        <g id="Group_19617-4-2" data-name="Group 19617-4" transform="translate(0.175)">
          <g id="Group_19615-4-2" data-name="Group 19615-4" transform="translate(0 1.877)">
            <path id="Path_24712-4-2" data-name="Path 24712-4" d="M10.1,19.693a.2.2,0,0,1-.079-.281V19.3a.213.213,0,0,1,.281-.067.191.191,0,0,1,.079.27l-.067.112A.191.191,0,0,1,10.1,19.693Z" transform="translate(-9.996 -19.205)" fill="#65e498"/>
          </g>
          <g id="Group_19616-4-2" data-name="Group 19616-4" transform="translate(1.056)">
            <path id="Path_24713-4-2" data-name="Path 24713-4" d="M11.045,18.018a.2.2,0,0,1-.079-.281h0l.067-.1a.191.191,0,0,1,.27-.079.2.2,0,0,1,.079.281l-.067.1a.191.191,0,0,1-.27.079Z" transform="translate(-10.939 -17.53)" fill="#65e498"/>
          </g>
        </g>
      </g>
      <g id="Group_20225-2" data-name="Group 20225" transform="translate(33.044 27.114)">
        <g id="Group_19614-5-2" data-name="Group 19614-5" transform="translate(0 0.108)">
          <g id="Group_19613-5-2" data-name="Group 19613-5" transform="translate(0 0)">
            <path id="Path_24711-5-2" data-name="Path 24711-5" d="M31.033,31.328a.629.629,0,0,0,.247-.236.562.562,0,0,0,.079-.326h0a.629.629,0,0,0-.135-.337,2.855,2.855,0,0,0-.315-.326,1.034,1.034,0,0,1-.247-.292.157.157,0,0,1,0-.124.191.191,0,0,1,.146-.079.416.416,0,0,1,.281.079.438.438,0,0,1,.213.213.292.292,0,0,1,0,.169.2.2,0,0,0,.09.225h0a.213.213,0,0,0,.27-.1h0a1.247,1.247,0,0,0,0-.191.629.629,0,0,0-.135-.348,1.18,1.18,0,0,0-.281-.348,1.236,1.236,0,0,0-.371-.135.573.573,0,0,0-.36.056.584.584,0,0,0-.315.506.7.7,0,0,0,.1.3,1.8,1.8,0,0,0,.281.3c.09.079.169.169.247.247a.371.371,0,0,1,.079.146.225.225,0,0,1,0,.124.2.2,0,0,1-.09.079.292.292,0,0,1-.169,0,.55.55,0,0,1-.213-.079.517.517,0,0,1-.2-.18.292.292,0,0,1-.079-.18.225.225,0,0,1,0-.124.225.225,0,0,0-.034-.169h0a.191.191,0,0,0-.27.09h0a.876.876,0,0,0,0,.247.8.8,0,0,0,.146.382,1.225,1.225,0,0,0,.371.3.786.786,0,0,0,.393.135A.73.73,0,0,0,31.033,31.328Z" transform="translate(-29.844 -29.163)" fill="#65e498"/>
          </g>
        </g>
        <g id="Group_19617-5-2" data-name="Group 19617-5" transform="translate(0.184)">
          <g id="Group_19615-5-2" data-name="Group 19615-5" transform="translate(0 1.876)">
            <path id="Path_24712-5-2" data-name="Path 24712-5" d="M30.1,31.228a.213.213,0,0,1-.067-.281l.056-.112a.213.213,0,0,1,.281-.067.2.2,0,0,1,.067.27l-.056.112a.2.2,0,0,1-.281.079Z" transform="translate(-30.009 -30.741)" fill="#65e498"/>
          </g>
          <g id="Group_19616-5-2" data-name="Group 19616-5" transform="translate(1.044)">
            <path id="Path_24713-5-2" data-name="Path 24713-5" d="M31.047,29.553a.2.2,0,0,1-.079-.281h0l.056-.1a.206.206,0,1,1,.36.2l-.067.1a.191.191,0,0,1-.27.079Z" transform="translate(-30.941 -29.066)" fill="#65e498"/>
          </g>
        </g>
      </g>
      <path id="Path_25130-2" data-name="Path 25130-2" d="M2.139,12.86H36a1.809,1.809,0,0,1,1.8,1.809V35.531A1.809,1.809,0,0,1,36,37.34H2.139a1.809,1.809,0,0,1-1.8-1.809V14.668a1.809,1.809,0,0,1,1.8-1.809Z" transform="translate(-0.341 -3.897)" fill="#fff"/>
      <path id="Rectangle_1971" data-name="Rectangle 1971" d="M18.309,17.333H30.9a.966.966,0,0,1,.955.966h0a.966.966,0,0,1-.955.966H18.309a.966.966,0,0,1-.955-.966h0a.966.966,0,0,1,.955-.966Z" transform="translate(1.7 -3.36)" fill="#24135f"/>
      <rect id="Rectangle_1972" data-name="Rectangle 1972" width="6.067" height="3.764" rx="0.782" transform="translate(3.898 19.018)" fill="#b8b9c0"/>
      <path id="Path_24755" data-name="Path 24755" d="M27.86,26.522a3.056,3.056,0,1,1-3.123,3.056A3.1,3.1,0,0,1,27.86,26.522Z" transform="translate(2.586 -2.258)" fill="#01cd1b"/>
      <ellipse id="Ellipse_234" data-name="Ellipse 234" cx="3.112" cy="3.045" rx="3.112" ry="3.045" transform="translate(23.436 24.275)" fill="#b8b9c0"/>
    </g>
  </g>
</svg>
