<svg xmlns="http://www.w3.org/2000/svg" xmlns:xlink="http://www.w3.org/1999/xlink" width="96" height="96" viewBox="0 0 96 96">
  <defs>
    <clipPath id="clip-path">
      <rect id="Rectangle_2455" data-name="Rectangle 2455" width="96" height="96" transform="translate(-0.353 0.494)" fill="none"/>
    </clipPath>
  </defs>
  <g id="CashAdvance_Large_Icon" data-name="CashAdvance Large Icon" transform="translate(0.353 -0.494)" clip-path="url(#clip-path)">
    <g id="Mask_Group_42" data-name="Mask Group 42" transform="translate(0.184 14.029)">
      <g id="CC6_CashAdvance_Light" data-name="CC6  CashAdvance Light">
        <g id="Group_20931" data-name="Group 20931" transform="translate(7.372 0.003)">
          <path id="Rectangle_1864-3" data-name="Rectangle 1864-3" d="M20.268,58.518,38,27.96a3.719,3.719,0,0,1,5.081-1.352h0L96.04,57.329a3.709,3.709,0,0,1,1.352,5.081h0L79.658,92.99a3.719,3.719,0,0,1-5.081,1.352h0L21.62,63.6A3.74,3.74,0,0,1,20.268,58.518Z" transform="translate(-19.774 -26.106)" fill="#bdb0d0"/>
          <path id="Path_24710" data-name="Path 24710" d="M85.187,58.932,46.2,36.422a1.016,1.016,0,0,0-1.26.315,6.219,6.219,0,0,1-7.114,2.409,1.016,1.016,0,0,0-1.23.508L29.883,51.239a1.016,1.016,0,0,0,.193,1.311,6.27,6.27,0,0,1,1.5,7.256,1.016,1.016,0,0,0,.356,1.28L70.929,83.6a1.016,1.016,0,0,0,1.28-.315,6.2,6.2,0,0,1,7.043-2.409,1.016,1.016,0,0,0,1.24-.508L87.24,68.7a1.016,1.016,0,0,0-.163-1.331A6.23,6.23,0,0,1,85.553,60.1a.955.955,0,0,0-.366-1.179Z" transform="translate(-19.612 -25.94)" fill="#ddd5e9"/>
          <g id="Group_19612" data-name="Group 19612" transform="translate(21.144 22.585)">
            <circle id="Ellipse_224" data-name="Ellipse 224" cx="2.906" cy="2.906" r="2.906" transform="translate(29.817 17.205)" fill="#5a4f89"/>
            <circle id="Ellipse_225" data-name="Ellipse 225" cx="2.906" cy="2.906" r="2.906" fill="#5a4f89"/>
          </g>
          <g id="Group_20218" data-name="Group 20218" transform="translate(31.993 26.66)">
            <g id="Group_19614" data-name="Group 19614" transform="translate(0 0.531)">
              <g id="Group_19613" data-name="Group 19613">
                <path id="Path_24711" data-name="Path 24711" d="M59.786,66.213a3.852,3.852,0,0,0,1.626-1.524,3.465,3.465,0,0,0,.478-2.033h0a3.994,3.994,0,0,0-.843-2.1,17.2,17.2,0,0,0-2.032-2.114,6.026,6.026,0,0,1-1.545-1.758.823.823,0,0,1,0-.783,1.016,1.016,0,0,1,.874-.549,2.947,2.947,0,0,1,1.8.5,2.825,2.825,0,0,1,1.331,1.331,1.738,1.738,0,0,1,0,1.016,1.3,1.3,0,0,0,.61,1.4h0a1.26,1.26,0,0,0,1.717-.5h0a1.016,1.016,0,0,0,0-.244,4.227,4.227,0,0,0,0-1.24,3.75,3.75,0,0,0-.843-2.165,6.4,6.4,0,0,0-2.033-1.717,6.1,6.1,0,0,0-2.419-.823,3.669,3.669,0,0,0-2.226.335,3.455,3.455,0,0,0-1.524,1.433,3.14,3.14,0,0,0-.457,1.789,3.476,3.476,0,0,0,.63,1.88,10.835,10.835,0,0,0,1.738,1.931,20.66,20.66,0,0,1,1.555,1.575,1.951,1.951,0,0,1,.478.945,1.016,1.016,0,0,1-.142.722,1.169,1.169,0,0,1-.61.539,1.921,1.921,0,0,1-1.016,0,3.912,3.912,0,0,1-1.372-.539,3.841,3.841,0,0,1-1.311-1.108,2.581,2.581,0,0,1-.508-1.961A1.291,1.291,0,0,0,53.13,59h0a1.27,1.27,0,0,0-1.677.6v.2a4.827,4.827,0,0,0-.193,1.575,4.248,4.248,0,0,0,.894,2.409,7.54,7.54,0,0,0,2.419,1.961,6.281,6.281,0,0,0,2.409.823,4.065,4.065,0,0,0,2.795-.356Z" transform="translate(-51.256 -52.863)" fill="#5a4f89"/>
              </g>
            </g>
            <g id="Group_19617" data-name="Group 19617" transform="translate(1.984)">
              <g id="Group_19615" data-name="Group 19615" transform="translate(0 11.674)">
                <path id="Path_24712" data-name="Path 24712" d="M53.85,66.879a1.28,1.28,0,0,1-.478-1.738l.386-.681A1.291,1.291,0,0,1,55.517,64a1.25,1.25,0,0,1,.528,1.717h0l-.386.681a1.291,1.291,0,0,1-1.809.478Z" transform="translate(-53.208 -63.828)" fill="#5a4f89"/>
              </g>
              <g id="Group_19616" data-name="Group 19616" transform="translate(6.831)">
                <path id="Path_24713" data-name="Path 24713" d="M60.57,55.226a1.26,1.26,0,0,1-.478-1.717h0l.386-.681a1.291,1.291,0,0,1,2.205,1.291l-.386.671a1.25,1.25,0,0,1-1.717.478Z" transform="translate(-59.929 -52.34)" fill="#5a4f89"/>
              </g>
            </g>
          </g>
          <g id="Group_20222" data-name="Group 20222" transform="translate(18.947 6.32)">
            <g id="Group_19614-2" data-name="Group 19614-2" transform="translate(0 0.264)">
              <g id="Group_19613-2" data-name="Group 19613-2">
                <path id="Path_24711-2" data-name="Path 24711-2" d="M41.042,37.072a1.311,1.311,0,0,0,.559-.518,1.179,1.179,0,0,0,.163-.7h0a1.352,1.352,0,0,0-.285-.722,6.168,6.168,0,0,0-.681-.772,2.134,2.134,0,0,1-.406-.549.3.3,0,0,1,0-.264.407.407,0,0,1,.3-.173.864.864,0,0,1,.61.173.915.915,0,0,1,.457.457.559.559,0,0,1,0,.366.447.447,0,0,0,.193.478h0a.467.467,0,0,0,.589-.213h0a2.855,2.855,0,0,0,0-.417,1.382,1.382,0,0,0-.295-.752,2.581,2.581,0,0,0-1.474-.864,1.311,1.311,0,0,0-.783.122,1.26,1.26,0,0,0-.671,1.087,1.453,1.453,0,0,0,.213.65,3.415,3.415,0,0,0,.61.661l.528.528a1.362,1.362,0,0,1,.173.315.579.579,0,0,1,0,.264.528.528,0,0,1-.193.173.742.742,0,0,1-.366,0,1.016,1.016,0,0,1-.457-.173,1.423,1.423,0,0,1-.467-.386.742.742,0,0,1-.142-.386.579.579,0,0,1,0-.264.488.488,0,0,0-.213-.508h0a.427.427,0,0,0-.569.152h0a1.534,1.534,0,0,0,0,.528,1.656,1.656,0,0,0,.3.823,2.632,2.632,0,0,0,.8.661,1.707,1.707,0,0,0,.843.285A1.484,1.484,0,0,0,41.042,37.072Z" transform="translate(-38.417 -32.585)" fill="#5a4f89"/>
              </g>
            </g>
            <g id="Group_19617-2" data-name="Group 19617-2" transform="translate(0.388)">
              <g id="Group_19615-2" data-name="Group 19615-2" transform="translate(0 4.035)">
                <path id="Path_24712-2" data-name="Path 24712-2" d="M39,37.347a.457.457,0,0,1-.142-.61v-.244a.467.467,0,0,1,.6-.142.437.437,0,0,1,.152.579l-.122.244a.457.457,0,0,1-.488.173Z" transform="translate(-38.799 -36.297)" fill="#5a4f89"/>
              </g>
              <g id="Group_19616-2" data-name="Group 19616-2" transform="translate(2.303)">
                <path id="Path_24713-2" data-name="Path 24713-2" d="M41.273,33.367a.467.467,0,0,1-.152-.61h0l.122-.213a.451.451,0,1,1,.772.467h0l-.142.213a.437.437,0,0,1-.589.183Z" transform="translate(-41.065 -32.326)" fill="#5a4f89"/>
              </g>
            </g>
          </g>
          <g id="Group_20224" data-name="Group 20224" transform="translate(66.975 34.14)">
            <g id="Group_19614-3" data-name="Group 19614-3" transform="translate(0 0.288)">
              <g id="Group_19613-3" data-name="Group 19613-3">
                <path id="Path_24711-3" data-name="Path 24711-3" d="M88.434,64.482a1.352,1.352,0,0,0,.559-.508,1.565,1.565,0,0,0,.173-.711h0a1.453,1.453,0,0,0-.295-.722,4.93,4.93,0,0,0-.681-.7,2.032,2.032,0,0,1-.528-.63.244.244,0,0,1,0-.264.427.427,0,0,1,.315-.173.9.9,0,0,1,.6.173,1.067,1.067,0,0,1,.467.457.741.741,0,0,1,0,.366.427.427,0,0,0,.193.478h0a.437.437,0,0,0,.579-.2h0a1.433,1.433,0,0,0-.264-1.159,1.87,1.87,0,0,0-.681-.579,2.276,2.276,0,0,0-.833-.3,1.189,1.189,0,0,0-.752.122,1.138,1.138,0,0,0-.539.488,1.332,1.332,0,0,0-.142.6,1.453,1.453,0,0,0,.213.65,3.14,3.14,0,0,0,.61.661l.508.528a.569.569,0,0,1,.173.315.4.4,0,0,1,0,.264.447.447,0,0,1-.193.173.742.742,0,0,1-.366,0,1.016,1.016,0,0,1-.457-.173,1.138,1.138,0,0,1-.467-.386.874.874,0,0,1-.163-.386v-.264a.437.437,0,0,0-.193-.508h0a.427.427,0,0,0-.569.152h0a1.6,1.6,0,0,0,0,.539,1.545,1.545,0,0,0,.3.823,3.21,3.21,0,0,0,.783.65,1.779,1.779,0,0,0,.844.285,1.433,1.433,0,0,0,.8-.051Z" transform="translate(-85.677 -59.984)" fill="#5a4f89"/>
              </g>
            </g>
            <g id="Group_19617-3" data-name="Group 19617-3" transform="translate(0.527)">
              <g id="Group_19615-3" data-name="Group 19615-3" transform="translate(0 4.064)">
                <path id="Path_24712-3" data-name="Path 24712-3" d="M86.424,64.706a.417.417,0,0,1-.183-.559h0l.152-.244a.447.447,0,0,1,.6-.142.427.427,0,0,1,.142.579v.244a.427.427,0,0,1-.559.244.548.548,0,0,1-.163-.1Z" transform="translate(-86.196 -63.7)" fill="#5a4f89"/>
              </g>
              <g id="Group_19616-3" data-name="Group 19616-3" transform="translate(2.347)">
                <path id="Path_24713-3" data-name="Path 24713-3" d="M88.713,60.757a.468.468,0,0,1-.152-.61h0l.122-.213a.437.437,0,0,1,.589-.183h0a.478.478,0,0,1,.142.61v.213a.437.437,0,0,1-.549.274.488.488,0,0,1-.173-.1Z" transform="translate(-88.505 -59.701)" fill="#5a4f89"/>
              </g>
            </g>
          </g>
        </g>
        <g id="Group_20932" data-name="Group 20932" transform="translate(17.018)">
          <path id="Rectangle_1864-3-2" data-name="Rectangle 1864-3-2" d="M29.758,58.518,47.5,27.96a3.709,3.709,0,0,1,5.081-1.352h0L105.53,57.329a3.719,3.719,0,0,1,1.352,5.081h0L89.158,92.99a3.73,3.73,0,0,1-5.081,1.352h0L31.12,63.6A3.74,3.74,0,0,1,29.758,58.518Z" transform="translate(-29.266 -26.103)" fill="#bdb0d0"/>
          <path id="Path_24710-2" data-name="Path 24710-2" d="M94.687,58.932,55.693,36.422a1.016,1.016,0,0,0-1.26.315,6.2,6.2,0,0,1-7.063,2.409,1.016,1.016,0,0,0-1.24.508L39.383,51.239a1.016,1.016,0,0,0,.193,1.311,6.27,6.27,0,0,1,1.453,7.256,1.016,1.016,0,0,0,.366,1.28L80.419,83.6a1.016,1.016,0,0,0,1.26-.315,6.2,6.2,0,0,1,7.114-2.409,1.016,1.016,0,0,0,1.23-.508L96.78,68.7a1.016,1.016,0,0,0-.173-1.331A6.23,6.23,0,0,1,95.083,60.1a1.016,1.016,0,0,0-.356-1.179Z" transform="translate(-29.104 -25.937)" fill="#ddd5e9"/>
          <g id="Group_19612-2" data-name="Group 19612-2" transform="translate(21.142 22.588)">
            <circle id="Ellipse_224-2" data-name="Ellipse 224-2" cx="2.906" cy="2.906" r="2.906" transform="translate(29.817 17.205)" fill="#5a4f89"/>
            <circle id="Ellipse_225-2" data-name="Ellipse 225-2" cx="2.906" cy="2.906" r="2.906" fill="#5a4f89"/>
          </g>
          <g id="Group_20218-2" data-name="Group 20218-2" transform="translate(32.02 26.663)">
            <g id="Group_19614-2-2" data-name="Group 19614-2-2" transform="translate(0 0.53)">
              <g id="Group_19613-2-2" data-name="Group 19613-2-2">
                <path id="Path_24711-2-2" data-name="Path 24711-2-2" d="M69.286,66.214a3.912,3.912,0,0,0,1.626-1.524,3.547,3.547,0,0,0,.478-2.033h0a4.167,4.167,0,0,0-.843-2.1,18.871,18.871,0,0,0-2.033-2.114c-1.209-1.108-1.5-1.6-1.545-1.758a.772.772,0,0,1,0-.783,1.016,1.016,0,0,1,.864-.549,2.978,2.978,0,0,1,1.819.528,2.866,2.866,0,0,1,1.331,1.331,1.91,1.91,0,0,1,0,1.016,1.311,1.311,0,0,0,.6,1.4h0A1.26,1.26,0,0,0,73.29,59.1h0a1.016,1.016,0,0,0,0-.244,5.08,5.08,0,0,0,0-1.24,3.76,3.76,0,0,0-.854-2.165A6.291,6.291,0,0,0,70.4,53.734,5.965,5.965,0,0,0,68,52.911a3.659,3.659,0,0,0-2.226.335,3.4,3.4,0,0,0-1.524,1.433,3.049,3.049,0,0,0-.457,1.789,3.394,3.394,0,0,0,.63,1.88,10.833,10.833,0,0,0,1.738,1.931A18.8,18.8,0,0,1,67.7,61.854a1.962,1.962,0,0,1,.488.945,1.179,1.179,0,0,1-.142.722,1.26,1.26,0,0,1-.61.539,1.921,1.921,0,0,1-1.016,0,4.065,4.065,0,0,1-1.352-.569,3.9,3.9,0,0,1-1.3-1.108,2.459,2.459,0,0,1-.518-1.189,3.272,3.272,0,0,1,0-.772,1.291,1.291,0,0,0-.6-1.453h0a1.27,1.27,0,0,0-1.677.6v.2a4.563,4.563,0,0,0-.193,1.575,4.248,4.248,0,0,0,.894,2.408,7.612,7.612,0,0,0,2.378,1.961,6.392,6.392,0,0,0,2.419.823,4.065,4.065,0,0,0,2.8-.325Z" transform="translate(-60.774 -52.862)" fill="#5a4f89"/>
              </g>
            </g>
            <g id="Group_19617-2-2" data-name="Group 19617-2-2" transform="translate(1.958)">
              <g id="Group_19615-2-2" data-name="Group 19615-2-2" transform="translate(0 11.665)">
                <path id="Path_24712-2-2" data-name="Path 24712-2-2" d="M63.35,66.879a1.28,1.28,0,0,1-.488-1.738l.386-.681A1.3,1.3,0,0,1,65.037,64a1.25,1.25,0,0,1,.478,1.717h0l-.386.681a1.27,1.27,0,0,1-1.778.478Z" transform="translate(-62.7 -63.819)" fill="#5a4f89"/>
              </g>
              <g id="Group_19616-2-2" data-name="Group 19616-2-2" transform="translate(6.836)">
                <path id="Path_24713-2-2" data-name="Path 24713-2-2" d="M70.06,55.226a1.26,1.26,0,0,1-.467-1.717h0l.386-.681a1.291,1.291,0,0,1,2.205,1.291l-.386.671a1.25,1.25,0,0,1-1.717.478Z" transform="translate(-69.427 -52.34)" fill="#5a4f89"/>
              </g>
            </g>
          </g>
          <g id="Group_20222-2" data-name="Group 20222-2" transform="translate(18.921 6.312)">
            <g id="Group_19614-2-3" data-name="Group 19614-2-3" transform="translate(0 0.274)">
              <g id="Group_19613-2-3" data-name="Group 19613-2-3">
                <path id="Path_24711-2-3" data-name="Path 24711-2-3" d="M50.492,37.072a1.311,1.311,0,0,0,.559-.518,1.189,1.189,0,0,0,.173-.7h0a1.372,1.372,0,0,0-.295-.722,6.1,6.1,0,0,0-.671-.772,2.175,2.175,0,0,1-.417-.549.4.4,0,0,1,0-.264.427.427,0,0,1,.315-.173.874.874,0,0,1,.61.173.915.915,0,0,1,.457.457.559.559,0,0,1,0,.366.427.427,0,0,0,.193.478h0A.447.447,0,0,0,52,34.633h0a2.858,2.858,0,0,0,0-.417,1.372,1.372,0,0,0-.285-.752,2.612,2.612,0,0,0-1.484-.864,1.25,1.25,0,0,0-1.453,1.209,1.464,1.464,0,0,0,.224.65,3.709,3.709,0,0,0,.6.661l.539.528a1.321,1.321,0,0,1,.163.315.4.4,0,0,1,0,.264.457.457,0,0,1-.193.173.7.7,0,0,1-.356,0,1.138,1.138,0,0,1-.467-.173,1.382,1.382,0,0,1-.457-.386.742.742,0,0,1-.142-.386.4.4,0,0,1,0-.264.5.5,0,0,0-.224-.508h0a.417.417,0,0,0-.559.152h0a2.3,2.3,0,0,0,0,.528,1.666,1.666,0,0,0,.315.823,2.632,2.632,0,0,0,.8.661,1.646,1.646,0,0,0,.843.285A1.413,1.413,0,0,0,50.492,37.072Z" transform="translate(-47.885 -32.584)" fill="#5a4f89"/>
              </g>
            </g>
            <g id="Group_19617-2-3" data-name="Group 19617-2-3" transform="translate(0.397)">
              <g id="Group_19615-2-3" data-name="Group 19615-2-3" transform="translate(0 4.046)">
                <path id="Path_24712-2-3" data-name="Path 24712-2-3" d="M48.483,37.347a.467.467,0,0,1-.152-.61v-.244a.478.478,0,0,1,.61-.142.437.437,0,0,1,.142.579l-.122.244a.437.437,0,0,1-.478.173Z" transform="translate(-48.275 -36.296)" fill="#5a4f89"/>
              </g>
              <g id="Group_19616-2-3" data-name="Group 19616-2-3" transform="translate(2.328)">
                <path id="Path_24713-2-3" data-name="Path 24713-2-3" d="M50.763,33.367a.478.478,0,0,1-.142-.61h0l.122-.213a.437.437,0,0,1,.6-.173.447.447,0,0,1,.173.61h0l-.142.213a.437.437,0,0,1-.589.183Z" transform="translate(-50.566 -32.314)" fill="#5a4f89"/>
              </g>
            </g>
          </g>
          <g id="Group_20224-2" data-name="Group 20224-2" transform="translate(67.041 34.143)">
            <g id="Group_19614-3-2" data-name="Group 19614-3-2" transform="translate(0 0.289)">
              <g id="Group_19613-3-2" data-name="Group 19613-3-2">
                <path id="Path_24711-3-2" data-name="Path 24711-3-2" d="M97.933,64.482a1.352,1.352,0,0,0,.559-.508,1.433,1.433,0,0,0,.163-.711h0a1.352,1.352,0,0,0-.285-.722,6.354,6.354,0,0,0-.681-.7,1.758,1.758,0,0,1-.528-.63.244.244,0,0,1,0-.264.417.417,0,0,1,.315-.173.9.9,0,0,1,.6.173,1.016,1.016,0,0,1,.457.457.559.559,0,0,1,0,.366.437.437,0,0,0,.193.478h0a.447.447,0,0,0,.589-.2h0a1.463,1.463,0,0,0-.254-1.169,1.961,1.961,0,0,0-.681-.579,2.246,2.246,0,0,0-.8-.295,1.209,1.209,0,0,0-.752.122,1.118,1.118,0,0,0-.528.488,1.332,1.332,0,0,0-.142.6,1.453,1.453,0,0,0,.213.65,3.141,3.141,0,0,0,.61.661l.508.528a.63.63,0,0,1,.163.315.3.3,0,0,1,0,.264.4.4,0,0,1-.193.173.7.7,0,0,1-.356,0,1.138,1.138,0,0,1-.467-.173,1.118,1.118,0,0,1-.457-.386A.884.884,0,0,1,96,62.856v-.264a.417.417,0,0,0-.193-.508h0a.417.417,0,0,0-.559.152h0a2.393,2.393,0,0,0,0,.539,1.555,1.555,0,0,0,.315.823,3.171,3.171,0,0,0,.772.65,1.819,1.819,0,0,0,.854.285A1.443,1.443,0,0,0,97.933,64.482Z" transform="translate(-95.235 -59.985)" fill="#5a4f89"/>
              </g>
            </g>
            <g id="Group_19617-3-2" data-name="Group 19617-3-2" transform="translate(0.464)">
              <g id="Group_19615-3-2" data-name="Group 19615-3-2" transform="translate(0 4.064)">
                <path id="Path_24712-3-2" data-name="Path 24712-3-2" d="M95.924,64.706a.427.427,0,0,1-.193-.559h0l.142-.244a.457.457,0,0,1,.61-.142.437.437,0,0,1,.142.579v.244a.427.427,0,0,1-.559.244.447.447,0,0,1-.163-.1Z" transform="translate(-95.691 -63.699)" fill="#5a4f89"/>
              </g>
              <g id="Group_19616-3-2" data-name="Group 19616-3-2" transform="translate(2.352)">
                <path id="Path_24713-3-2" data-name="Path 24713-3-2" d="M98.2,60.757a.478.478,0,0,1-.142-.61h0l.122-.213a.437.437,0,0,1,.589-.183h0a.468.468,0,0,1,.152.61v.213a.447.447,0,0,1-.559.274.6.6,0,0,1-.173-.1Z" transform="translate(-98.006 -59.701)" fill="#5a4f89"/>
              </g>
            </g>
          </g>
        </g>
        <path id="Path_25130-2" data-name="Path 25130-2" d="M16.392,43.45H89.338a3.892,3.892,0,0,1,3.852,3.892V92.281a3.892,3.892,0,0,1-3.852,3.892H16.392a3.892,3.892,0,0,1-3.872-3.892V47.342a3.892,3.892,0,0,1,3.862-3.892Z" transform="translate(-12.52 -25.821)" fill="#24135f"/>
        <g id="Group_20225" data-name="Group 20225" transform="translate(60.35 56.414)">
          <g id="Group_19614-5" data-name="Group 19614-5" transform="translate(0 0.246)">
            <g id="Group_19613-5" data-name="Group 19613-5">
              <path id="Path_24711-5" data-name="Path 24711-5" d="M74.481,86.362a1.179,1.179,0,0,0,.559-.508,1.4,1.4,0,0,0,.163-.7h0a1.23,1.23,0,0,0-.285-.7,5.141,5.141,0,0,0-.681-.732,1.667,1.667,0,0,1-.528-.6.244.244,0,0,1,0-.264.3.3,0,0,1,.3-.193,1.016,1.016,0,0,1,.61.193.915.915,0,0,1,.457.457.569.569,0,0,1,0,.366.417.417,0,0,0,.193.457h0a.447.447,0,0,0,.589-.193h0a1.434,1.434,0,0,0,0-.417,1.3,1.3,0,0,0-.295-.742,2.032,2.032,0,0,0-.681-.589,2.255,2.255,0,0,0-.793-.285,1.351,1.351,0,0,0-.752,0,1.514,1.514,0,0,0-.539.478,1.534,1.534,0,0,0-.142.63,1.565,1.565,0,0,0,.224.63,3.618,3.618,0,0,0,.772.752,5.081,5.081,0,0,1,.508.539.437.437,0,0,1,.163.3.254.254,0,0,1,0,.244l-.193.193a.7.7,0,0,1-.356,0,1.077,1.077,0,0,1-.457-.193,1.25,1.25,0,0,1-.467-.356.783.783,0,0,1-.163-.417v-.264a.407.407,0,0,0-.193-.488h0a.437.437,0,0,0-.579.213h0a2.3,2.3,0,0,0,0,.528,1.494,1.494,0,0,0,.315.823,3.048,3.048,0,0,0,.772.681,2.267,2.267,0,0,0,.854.264A1.372,1.372,0,0,0,74.481,86.362Z" transform="translate(-71.905 -81.857)" fill="#65e498"/>
            </g>
          </g>
          <g id="Group_19617-5" data-name="Group 19617-5" transform="translate(0.335)">
            <g id="Group_19615-5" data-name="Group 19615-5" transform="translate(0 4.019)">
              <path id="Path_24712-5" data-name="Path 24712-5" d="M72.464,86.617a.437.437,0,0,1-.173-.6h0l.152-.213a.437.437,0,0,1,.589-.183h0a.457.457,0,0,1,.142.61v.213a.417.417,0,0,1-.549.274.6.6,0,0,1-.173-.1Z" transform="translate(-72.234 -85.571)" fill="#65e498"/>
            </g>
            <g id="Group_19616-5" data-name="Group 19616-5" transform="translate(2.348)">
              <path id="Path_24713-5" data-name="Path 24713-5" d="M74.753,82.636a.427.427,0,0,1-.152-.579h0l.122-.244a.478.478,0,0,1,.61-.142.437.437,0,0,1,.142.579l-.122.244A.447.447,0,0,1,74.753,82.636Z" transform="translate(-74.544 -81.616)" fill="#65e498"/>
            </g>
          </g>
        </g>
        <path id="Rectangle_1971" data-name="Rectangle 1971" d="M54.962,54.07H82.1A2.032,2.032,0,0,1,84.129,56.1h0A2.032,2.032,0,0,1,82.1,58.135H54.962A2.033,2.033,0,0,1,52.93,56.1h0A2.032,2.032,0,0,1,54.962,54.07Z" transform="translate(-11.863 -25.649)" fill="#fff"/>
        <rect id="Rectangle_1972" data-name="Rectangle 1972" width="13.069" height="8.11" rx="1.86" transform="translate(8.394 39.285)" fill="#b8b9c0"/>
        <path id="Path_24755" data-name="Path 24755" d="M77.168,75.88a6.585,6.585,0,1,1-6.738,6.585A6.7,6.7,0,0,1,77.168,75.88Z" transform="translate(-11.579 -25.294)" fill="#bdb0d0"/>
        <ellipse id="Ellipse_234" data-name="Ellipse 234" cx="6.707" cy="6.555" rx="6.707" ry="6.555" transform="translate(50.477 50.616)" fill="#fff"/>
      </g>
    </g>
  </g>
</svg>
