<svg id="Check_Services_Icon_Large" data-name="Check Services Icon Large" xmlns="http://www.w3.org/2000/svg" width="96.188" height="84.85" viewBox="0 0 96.188 84.85">
  <g id="Group_20641" data-name="Group 20641" transform="translate(0 78.402)">
    <rect id="Rectangle_1122-2" data-name="Rectangle 1122-2" width="96.188" height="6.448" fill="#5a4f89"/>
  </g>
  <g id="Group_20642" data-name="Group 20642" transform="translate(0 28.326)">
    <rect id="Rectangle_1123-2" data-name="Rectangle 1123-2" width="96.188" height="6.448" transform="translate(0 0)" fill="#24135f"/>
  </g>
  <rect id="Rectangle_1124" data-name="Rectangle 1124" width="85.882" height="6.448" transform="translate(5.165 71.943)" fill="#5a4f89"/>
  <rect id="Rectangle_1125" data-name="Rectangle 1125" width="15.625" height="3.083" transform="translate(9.33 68.86)" fill="#5a4f89"/>
  <rect id="Rectangle_1126" data-name="Rectangle 1126" width="15.625" height="3.083" transform="translate(9.33 34.721)" fill="#5a4f89"/>
  <rect id="Rectangle_1127" data-name="Rectangle 1127" width="10.095" height="31.532" transform="translate(12.083 37.573)" fill="#24135f"/>
  <path id="Rectangle_1128" data-name="Rectangle 1128" d="M33.4,63.7h0a.859.859,0,0,1,.859.859h0v14a.859.859,0,0,1-.859.859h0a.859.859,0,0,1-.847-.859h0v-14A.859.859,0,0,1,33.4,63.7Z" transform="translate(-16.278 -17.055)" fill="#fff"/>
  <rect id="Rectangle_1129" data-name="Rectangle 1129" width="15.625" height="3.083" transform="translate(29.937 68.86)" fill="#5a4f89"/>
  <path id="Path_25332" data-name="Path 25332" d="M44.46,53.39H60.085v3.071H44.46Z" transform="translate(-14.523 -18.668)" fill="#5a4f89"/>
  <rect id="Rectangle_1131" data-name="Rectangle 1131" width="10.095" height="31.532" transform="translate(32.694 37.573)" fill="#24135f"/>
  <path id="Rectangle_1132" data-name="Rectangle 1132" d="M51.229,63.7h0a.859.859,0,0,1,.859.847h0v14a.859.859,0,0,1-.859.859h0a.859.859,0,0,1-.859-.859h0V64.559a.859.859,0,0,1,.847-.859Z" transform="translate(-13.497 -17.055)" fill="#fff"/>
  <rect id="Rectangle_1133" data-name="Rectangle 1133" width="15.625" height="3.083" transform="translate(50.65 68.86)" fill="#5a4f89"/>
  <rect id="Rectangle_1134" data-name="Rectangle 1134" width="15.625" height="3.083" transform="translate(50.65 34.721)" fill="#5a4f89"/>
  <rect id="Rectangle_1135" data-name="Rectangle 1135" width="10.095" height="31.532" transform="translate(53.423 37.573)" fill="#24135f"/>
  <path id="Path_25317" data-name="Path 25317" d="M69.029,63.7a.859.859,0,0,1,.859.859v14a.859.859,0,0,1-1.718,0v-14a.859.859,0,0,1,.859-.859Z" transform="translate(-10.56 -17.055)" fill="#fff"/>
  <path id="Path_25331" data-name="Path 25331" d="M80.09,82.81H95.7V85.9H80.09Z" transform="translate(-8.821 -13.95)" fill="#5a4f89"/>
  <path id="Path_25330" data-name="Path 25330" d="M80.09,53.39H95.7v3.071H80.09Z" transform="translate(-8.821 -18.668)" fill="#5a4f89"/>
  <rect id="Rectangle_1139" data-name="Rectangle 1139" width="10.095" height="31.532" transform="translate(74.022 37.573)" fill="#24135f"/>
  <path id="Rectangle_1140" data-name="Rectangle 1140" d="M86.847,63.7h0a.859.859,0,0,1,.859.859h0v14a.859.859,0,0,1-.859.859h0A.859.859,0,0,1,86,78.56h0v-14a.859.859,0,0,1,.847-.859Z" transform="translate(-7.778 -17.055)" fill="#fff"/>
  <path id="Path_1427" data-name="Path 1427" d="M64.778,24.074,20.79,52.206h91.341L68.143,24.074A3.118,3.118,0,0,0,64.778,24.074Z" transform="translate(-18.355 -23.581)" fill="#24135f"/>
  <path id="Path_1428" data-name="Path 1428" d="M62.614,36.036,40.4,50.049H86.533L64.32,36.036A1.647,1.647,0,0,0,62.614,36.036Z" transform="translate(-15.361 -21.59)" fill="#5a4f89"/>
</svg>
