<svg xmlns="http://www.w3.org/2000/svg" xmlns:xlink="http://www.w3.org/1999/xlink" width="20.5" height="23.541" viewBox="0 0 20.5 23.541"><defs><clipPath id="a"><rect width="17.882" height="13.962" fill="#fff"/></clipPath></defs><g transform="translate(1.309 0)" clip-path="url(#a)"><path d="M15.334,0H1.7a1.653,1.653,0,0,0-1.7,1.626L0,11.383a1.661,1.661,0,0,0,1.7,1.626H15.334a1.66,1.66,0,0,0,1.7-1.626V1.627A1.66,1.66,0,0,0,15.334,0m-.143,12.148H1.847a1.016,1.016,0,0,1-.953-1.063V5.768h15.25v5.317a1.016,1.016,0,0,1-.953,1.063m.953-8.694H.893V.97H16.144Z" transform="translate(0.375 0.289)" fill="#fff"/></g><path d="M4,0H16.5a4,4,0,0,1,4,4V8.726a0,0,0,0,1,0,0H0a0,0,0,0,1,0,0V4A4,4,0,0,1,4,0Z" transform="translate(0 14.815)" fill="#fff"/></svg>