<svg xmlns="http://www.w3.org/2000/svg" xmlns:xlink="http://www.w3.org/1999/xlink" width="44.8" height="44.8" viewBox="0 0 44.8 44.8">
  <defs>
    <clipPath id="clip-path">
      <rect id="Rectangle_2347" data-name="Rectangle 2347" width="44.8" height="44.8" fill="#fff"/>
    </clipPath>
  </defs>
  <g id="Patron_Services_Icon" data-name="Patron Services Icon" clip-path="url(#clip-path)">
    <g id="CC6__PatronServices_Light" transform="translate(2.113 0)">
      <path id="Path_25509" data-name="Path 25509" d="M43.761,21.339a9.867,9.867,0,0,1-.119,1.194,17.916,17.916,0,0,1-3.07,8.361,19.636,19.636,0,0,1-12.72,8.361A20.436,20.436,0,0,1,14.068,37.32l-.227-.1a1.7,1.7,0,0,1-1.135-1.875,1.815,1.815,0,0,1,1.816-1.4.7.7,0,0,1,.275.06l2.389,1a16.722,16.722,0,0,0,7.358,1.194,16.4,16.4,0,0,0,11.144-5.028A14.8,14.8,0,0,0,39.9,22.665a14.918,14.918,0,0,0-3.8-12.422,15.921,15.921,0,0,0-9.818-5.22A16.471,16.471,0,0,0,12.468,9.049,15.217,15.217,0,0,0,10.377,29.7a.334.334,0,0,0,.107.119,1.7,1.7,0,0,1,.358,1.9,1.851,1.851,0,0,1-1.72,1.1,1.529,1.529,0,0,1-1.194-.573,17.57,17.57,0,0,1-4.157-9.388A18.083,18.083,0,0,1,8.024,8.523,19.756,19.756,0,0,1,19.6,1.739,20.2,20.2,0,0,1,26,1.476,20.042,20.042,0,0,1,37.12,6.254a18.716,18.716,0,0,1,6.151,10.308,17.523,17.523,0,0,1,.418,2.962,1.349,1.349,0,0,0,0,.215Z" transform="translate(-3.187 -1.335)" fill="#bdb0d0"/>
      <ellipse id="Ellipse_182" data-name="Ellipse 182" cx="17.414" cy="16.722" rx="17.414" ry="16.722" transform="translate(3.058 2.47)" fill="#fff"/>
      <path id="Path_25510" data-name="Path 25510" d="M22.705,19.8c-3.715,0-11.1,2.019-11.156,5.721a13.389,13.389,0,0,0,22.312,0C33.8,21.822,26.408,19.8,22.705,19.8Z" transform="translate(-2.233 0.881)" fill="#24135f"/>
      <path id="Path_25511" data-name="Path 25511" d="M22.08,17.842a5.578,5.578,0,1,0,0-11.144h0a5.578,5.578,0,0,0,0,11.144Z" transform="translate(-1.608 -0.692)" fill="#24135f"/>
      <path id="Path_26798" data-name="Path 26798" d="M10.248,0A10.248,10.248,0,1,1,0,10.248,10.248,10.248,0,0,1,10.248,0Z" transform="translate(0 24.304)" fill="#bdb0d0"/>
      <path id="Path_25512" data-name="Path 25512" d="M17.66,32.847v-.418l1.194-.872a.633.633,0,0,0,.167-.8l-1.194-1.995a.621.621,0,0,0-.776-.263l-1.362.549a5.351,5.351,0,0,0-.717-.418l-.179-1.421a.609.609,0,0,0-.609-.537H11.879a.609.609,0,0,0-.609.537L11.1,28.642a6.354,6.354,0,0,0-.729.418L9.06,28.5a.621.621,0,0,0-.776.263L7.09,30.756a.633.633,0,0,0,.167.8l1.194.872v.836l-1.194.872a.621.621,0,0,0-.167.8L8.284,36.92a.621.621,0,0,0,.776.263l1.314-.561a4.969,4.969,0,0,0,.729.418l.179,1.433a.621.621,0,0,0,.609.537H14.2a.633.633,0,0,0,.609-.537l.179-1.433a4.312,4.312,0,0,0,.717-.418l1.326.561a.6.6,0,0,0,.764-.263l1.194-1.983a.621.621,0,0,0-.155-.8l-1.194-.872C17.648,33.121,17.66,32.99,17.66,32.847Zm-4.6,2.174a2.162,2.162,0,1,1,2.15-2.15,2.162,2.162,0,0,1-2.15,2.15Z" transform="translate(-2.778 1.705)" fill="#f2f2f2"/>
    </g>
  </g>
</svg>
