<svg id="Patron_Settings_Large_Icon" data-name="Patron Settings Large Icon" xmlns="http://www.w3.org/2000/svg" width="87.115" height="96.188" viewBox="0 0 87.115 96.188">
  <g id="CC6__PatronSettings_Dark" transform="translate(0)">
    <path id="Path_26632" data-name="Path 26632" d="M89.827,44.285a21.192,21.192,0,0,1-.256,2.564A38.467,38.467,0,0,1,82.98,64.8,42.16,42.16,0,0,1,55.669,82.752,43.878,43.878,0,0,1,26.075,78.6l-.487-.205a3.641,3.641,0,0,1-2.436-4.026,3.9,3.9,0,0,1,3.9-3,1.513,1.513,0,0,1,.59.128l5.129,2.154a35.9,35.9,0,0,0,15.8,2.564,35.21,35.21,0,0,0,23.926-10.8,31.774,31.774,0,0,0,9.053-18.285,32.03,32.03,0,0,0-8.155-26.67A34.184,34.184,0,0,0,52.309,9.254,35.364,35.364,0,0,0,22.638,17.9a32.671,32.671,0,0,0-4.488,44.34.718.718,0,0,0,.231.256,3.642,3.642,0,0,1,.769,4.078,3.975,3.975,0,0,1-3.693,2.359A3.283,3.283,0,0,1,12.893,67.7,37.723,37.723,0,0,1,3.969,47.542,38.826,38.826,0,0,1,13.1,16.768,42.416,42.416,0,0,1,37.948,2.2a43.365,43.365,0,0,1,13.746-.564A43.032,43.032,0,0,1,75.569,11.9,40.185,40.185,0,0,1,88.776,34.027a37.619,37.619,0,0,1,.9,6.36,2.9,2.9,0,0,0,0,.462Z" transform="translate(-2.712 -1.335)" fill="#5a4f89"/>
    <ellipse id="Ellipse_300" data-name="Ellipse 300" cx="37.39" cy="35.903" rx="37.39" ry="35.903" transform="translate(6.565 5.304)" fill="#24135f"/>
    <path id="Path_26633" data-name="Path 26633" d="M35.5,19.8c-7.976,0-23.824,4.334-23.952,12.284a28.748,28.748,0,0,0,47.9,0C59.326,24.138,43.451,19.8,35.5,19.8Z" transform="translate(8.453 24.608)" fill="#f2f2f2"/>
    <path id="Path_26634" data-name="Path 26634" d="M28.182,30.631a11.976,11.976,0,1,0,0-23.926h0a11.976,11.976,0,0,0,0,23.926Z" transform="translate(15.773 6.19)" fill="#f2f2f2"/>
    <circle id="Ellipse_301" data-name="Ellipse 301" cx="22.003" cy="22.003" r="22.003" transform="translate(0 52.182)" fill="#bdb0d0"/>
    <path id="Path_26635" data-name="Path 26635" d="M29.877,39.93v-.9l2.564-1.872a1.359,1.359,0,0,0,.359-1.718l-2.564-4.283a1.334,1.334,0,0,0-1.667-.564l-2.923,1.18a11.489,11.489,0,0,0-1.539-.9l-.385-3.052a1.308,1.308,0,0,0-1.308-1.154H17.465a1.308,1.308,0,0,0-1.308,1.154L15.8,30.9a13.643,13.643,0,0,0-1.564.9L11.413,30.6a1.334,1.334,0,0,0-1.667.564L7.181,35.442A1.359,1.359,0,0,0,7.54,37.16L10.1,39.032v1.8L7.54,42.7a1.334,1.334,0,0,0-.359,1.718l2.564,4.257a1.334,1.334,0,0,0,1.667.564l2.821-1.205a10.669,10.669,0,0,0,1.564.9l.385,3.077a1.334,1.334,0,0,0,1.308,1.154H22.44a1.359,1.359,0,0,0,1.308-1.154l.385-3.077a9.258,9.258,0,0,0,1.539-.9l2.847,1.205a1.282,1.282,0,0,0,1.641-.564l2.564-4.257A1.334,1.334,0,0,0,32.39,42.7l-2.564-1.872C29.851,40.52,29.877,40.238,29.877,39.93ZM20,44.6a4.642,4.642,0,1,1,4.616-4.616A4.642,4.642,0,0,1,20,44.6Z" transform="translate(2.077 34.255)" fill="#f2f2f2"/>
  </g>
</svg>
