<svg xmlns="http://www.w3.org/2000/svg" xmlns:xlink="http://www.w3.org/1999/xlink" width="44.8" height="44.8" viewBox="0 0 44.8 44.8">
  <defs>
    <clipPath id="clip-path">
      <rect id="Rectangle_3097" data-name="Rectangle 3097" width="44.8" height="44.8" fill="#fff"/>
    </clipPath>
  </defs>
  <g id="Void_Icon" data-name="Void Icon" clip-path="url(#clip-path)">
    <g id="CC6__VoidTransaction_Light" transform="translate(1.757 0)">
      <path id="Path_26794" data-name="Path 26794" d="M44.134,21.5c0,.4-.084.8-.12,1.2a17.966,17.966,0,0,1-3.078,8.384A19.654,19.654,0,0,1,28.18,39.466a20.421,20.421,0,0,1-13.822-1.94l-.228-.1A1.689,1.689,0,0,1,13.065,35.5a1.832,1.832,0,0,1,1.821-1.4,1.03,1.03,0,0,1,.275.06c.814.335,1.617.683,2.4,1.006a16.588,16.588,0,0,0,7.378,1.2,16.493,16.493,0,0,0,11.175-5.042,14.876,14.876,0,0,0,4.228-8.552,14.935,14.935,0,0,0-3.845-12.432,15.918,15.918,0,0,0-9.845-5.246A16.528,16.528,0,0,0,12.79,9.14a14.971,14.971,0,0,0-5.066,9.306,14.935,14.935,0,0,0,2.97,11.45l.1.12a1.677,1.677,0,0,1,.371,1.9,1.9,1.9,0,0,1-1.713,1.054,1.545,1.545,0,0,1-1.2-.587,17.582,17.582,0,0,1-4.168-9.414A18.085,18.085,0,0,1,8.346,8.6,19.894,19.894,0,0,1,19.892,1.786a20.613,20.613,0,0,1,6.42-.263A20.122,20.122,0,0,1,37.5,6.373,18.768,18.768,0,0,1,43.679,16.6a17.882,17.882,0,0,1,.419,2.982,1.354,1.354,0,0,0,0,.216Z" transform="translate(-2.849 -1.385)" fill="#bdb0d0"/>
      <ellipse id="Ellipse_304" data-name="Ellipse 304" cx="17.463" cy="16.768" rx="17.463" ry="16.768" transform="translate(3.557 2.497)" fill="#fff"/>
      <path id="Path_26795" data-name="Path 26795" d="M18.123,14.1H33.6a1.9,1.9,0,0,1,1.9,1.2c.287.934-.491,1.833-1.677,1.94H13.895a2.886,2.886,0,0,1-1.2-.168,1.377,1.377,0,0,1-.527-2.4q2.779-2.312,5.593-4.575a2.12,2.12,0,0,1,2.587,0,1.329,1.329,0,0,1,0,2.12l-2.072,1.713-.192.132Z" transform="translate(-1.917 -0.392)" fill="#24135f"/>
      <path id="Path_26796" data-name="Path 26796" d="M29.127,23.938H13.653a1.9,1.9,0,0,1-1.9-1.2c-.287-.934.491-1.844,1.677-1.94H33.331a2.887,2.887,0,0,1,1.2.168,1.365,1.365,0,0,1,.527,2.4q-2.731,2.276-5.5,4.539a2.12,2.12,0,0,1-2.587,0,1.317,1.317,0,0,1,0-2.12c.671-.575,1.365-1.138,2.06-1.713l.192-.132Z" transform="translate(-1.915 0.944)" fill="#24135f"/>
      <circle id="Ellipse_305" data-name="Ellipse 305" cx="10.276" cy="10.276" r="10.276" transform="translate(0 24.247)" fill="#bdb0d0"/>
      <path id="Path_26797" data-name="Path 26797" d="M12.884,26a6.959,6.959,0,1,0,6.947,6.959A6.959,6.959,0,0,0,12.884,26ZM7.315,32.956a5.569,5.569,0,0,1,5.569-5.569,5.45,5.45,0,0,1,3.4,1.2L8.489,36.4A5.474,5.474,0,0,1,7.315,32.956Zm5.569,5.569a5.521,5.521,0,0,1-3.413-1.2l7.785-7.773a5.45,5.45,0,0,1,1.2,3.4A5.569,5.569,0,0,1,12.884,38.525Z" transform="translate(-2.608 1.568)" fill="#fff"/>
    </g>
  </g>
</svg>
