<svg id="Logo" xmlns="http://www.w3.org/2000/svg" xmlns:xlink="http://www.w3.org/1999/xlink" width="157.226" height="42" viewBox="0 0 157.226 42">
  <defs>
    <clipPath id="clip-path">
      <rect id="Rectangle_3081" data-name="Rectangle 3081" width="157.226" height="42" fill="none"/>
    </clipPath>
  </defs>
  <g id="Group_23931" data-name="Group 23931" clip-path="url(#clip-path)">
    <path id="Path_26768" data-name="Path 26768" d="M156.716,46.452a5.109,5.109,0,0,1-.138.552c-.525,2.456-.883,3.422-1.629,4.25a6.955,6.955,0,0,1-3.891,2.125,29.351,29.351,0,0,1-4.084.166c-3.174,0-4.222-.193-5.216-.966a4.321,4.321,0,0,1-1.518-3.5,55.65,55.65,0,0,1,1.3-7.424c.745-3.036,1.738-4.554,3.753-5.685,1.573-.883,2.9-1.1,6.6-1.1,3.118,0,4,.166,5.05.883a3.193,3.193,0,0,1,1.159,2.622,15.315,15.315,0,0,1-.442,3.229h-4.885c.028-.166.055-.3.055-.359a7.224,7.224,0,0,0,.11-.855c0-.994-.607-1.27-2.76-1.27-1.959,0-2.815.442-3.284,1.739a40.271,40.271,0,0,0-1.463,6.844c0,1.187.745,1.628,2.76,1.628,2.594,0,3.2-.469,3.643-2.87Z" transform="translate(-99.922 -24.839)" fill="#121a50"/>
    <path id="Path_26769" data-name="Path 26769" d="M199.509,58.033a4.508,4.508,0,0,1,1.352-2.842c1.021-.856,2.291-1.132,5.271-1.132,2.815,0,4.029.3,4.912,1.187a2.317,2.317,0,0,1,.552,1.518,14.322,14.322,0,0,1-.193,1.959l-1.766,8.362h-4.195l.58-2.1h-.11c-.938,1.738-1.96,2.235-4.388,2.235-2.677,0-3.781-.745-3.781-2.539a6.677,6.677,0,0,1,1.242-3.974q1.324-1.49,4.388-1.49c2.456,0,3.063.3,3.312,1.6h.083l.524-2.511a2.912,2.912,0,0,0,.083-.662c0-.69-.552-1.021-1.684-1.021-1.242,0-1.628.276-1.932,1.407Zm2.566,5.547c0,.69.442.883,2.07.883,1.021,0,1.518-.166,1.822-.607a2.963,2.963,0,0,0,.386-1.3c0-.552-.58-.8-1.96-.8-1.656,0-2.318.524-2.318,1.822" transform="translate(-140.893 -38.517)" fill="#121a50"/>
    <path id="Path_26770" data-name="Path 26770" d="M255.235,57.9V57.7c-.028-.828-.248-.938-1.794-.938-1.132,0-1.408.055-1.711.331a1.611,1.611,0,0,0-.414,1.049c0,.718,0,.718,3.008.856a10.313,10.313,0,0,1,3.256.469,2.061,2.061,0,0,1,1.3,2.1,5.856,5.856,0,0,1-1.49,3.946c-1.242,1.27-2.815,1.711-6.182,1.711a10.049,10.049,0,0,1-3.726-.442,2.142,2.142,0,0,1-1.546-2.291,7.087,7.087,0,0,1,.193-1.435h4.278a2.871,2.871,0,0,0-.111.662c0,.607.359.745,1.877.745,1.9,0,2.456-.359,2.456-1.628,0-.552-.414-.745-1.6-.745a17.919,17.919,0,0,1-3.919-.3,2.235,2.235,0,0,1-2.015-2.373,6.133,6.133,0,0,1,1.6-4.167c.966-.883,2.428-1.187,5.575-1.187,3.891,0,5.133.607,5.133,2.566a7.21,7.21,0,0,1-.166,1.27Z" transform="translate(-175.23 -38.517)" fill="#121a50"/>
    <path id="Path_26771" data-name="Path 26771" d="M299.158,43.455h.083c1.187-2.125,2.18-2.732,4.471-2.732,2.346,0,3.5.883,3.5,2.677a4.772,4.772,0,0,1-.11,1.132l-1.96,9.217h-4.195L302.58,46.1a3.681,3.681,0,0,0,.166-1.049c0-.69-.469-1.049-1.408-1.049a2.534,2.534,0,0,0-2.787,2.374l-1.573,7.368h-4.195L296.7,35.341H300.9Z" transform="translate(-208.61 -25.181)" fill="#121a50"/>
    <path id="Path_26772" data-name="Path 26772" d="M361.961,46.452a5.031,5.031,0,0,1-.138.552c-.525,2.456-.883,3.422-1.629,4.25a6.955,6.955,0,0,1-3.891,2.125,29.347,29.347,0,0,1-4.084.166c-3.174,0-4.222-.193-5.216-.966a4.321,4.321,0,0,1-1.518-3.5,55.641,55.641,0,0,1,1.3-7.424c.745-3.036,1.739-4.554,3.753-5.685,1.573-.883,2.9-1.1,6.6-1.1,3.119,0,4,.166,5.051.883a3.194,3.194,0,0,1,1.159,2.622,15.313,15.313,0,0,1-.442,3.229h-4.885c.028-.166.055-.3.055-.359a7.234,7.234,0,0,0,.111-.855c0-.994-.608-1.27-2.76-1.27-1.959,0-2.815.442-3.284,1.739a40.263,40.263,0,0,0-1.463,6.844c0,1.187.745,1.628,2.76,1.628,2.594,0,3.2-.469,3.643-2.87Z" transform="translate(-246.16 -24.839)" fill="#403e77"/>
    <path id="Path_26773" data-name="Path 26773" d="M407.087,53.748h-4.195l3.919-18.407h4.2Z" transform="translate(-287.063 -25.181)" fill="#403e77"/>
    <path id="Path_26774" data-name="Path 26774" d="M438.7,67.427h-4.195l.773-2.649h-.056a4.674,4.674,0,0,1-4.608,2.787c-2.263,0-3.532-1.021-3.532-2.787a8.153,8.153,0,0,1,.193-1.518l1.849-8.721h4.195l-1.573,7.368c-.083.442-.221,1.214-.221,1.352,0,.662.524,1.021,1.463,1.021a2.6,2.6,0,0,0,2.153-.994c.3-.386.359-.552.662-2.014l1.435-6.734h4.195Z" transform="translate(-304.3 -38.859)" fill="#403e77"/>
    <path id="Path_26775" data-name="Path 26775" d="M479,35.341H483.2l-1.6,7.534h.055a4.391,4.391,0,0,1,4.305-2.152c2.76,0,3.919.938,3.919,3.146a41.248,41.248,0,0,1-1.132,5.851,5.709,5.709,0,0,1-2.346,3.422,7.034,7.034,0,0,1-3.45.745c-2.18,0-3.063-.69-3.256-2.539h-.083l-.331,2.4h-4.195Zm1.959,10.653a19.912,19.912,0,0,0-.58,3.422c0,.966.414,1.27,1.656,1.27,1.656,0,2.318-.442,2.677-1.794a23.076,23.076,0,0,0,.718-3.588c0-.993-.469-1.352-1.711-1.352a2.441,2.441,0,0,0-2.76,2.042" transform="translate(-338.501 -25.181)" fill="#403e77"/>
    <path id="Path_26776" data-name="Path 26776" d="M535.962,57a2.8,2.8,0,0,1-2.681,2.664,1.685,1.685,0,0,1-1.726-1.754,2.8,2.8,0,0,1,2.688-2.657A1.678,1.678,0,0,1,535.962,57m-4.006.838a1.386,1.386,0,0,0,1.408,1.449,2.311,2.311,0,0,0,2.2-2.2,1.369,1.369,0,0,0-1.408-1.41,2.271,2.271,0,0,0-2.2,2.163m.987-1.637H534.2a1.167,1.167,0,0,1,.542.078.419.419,0,0,1,.235.4,2.278,2.278,0,0,1-.166.728.568.568,0,0,1-.459.312c.242.045.332.136.332.338a.484.484,0,0,1-.026.156l-.1.461h-.714l.07-.344a.635.635,0,0,0,.019-.136c0-.117-.064-.162-.21-.162h-.465l-.14.643h-.7Zm.949,1.234c.153,0,.223-.039.261-.156a1.635,1.635,0,0,0,.07-.331c0-.117-.044-.143-.235-.143h-.465l-.134.63Z" transform="translate(-378.735 -39.367)" fill="#111b55"/>
    <path id="Path_26777" data-name="Path 26777" d="M1.236,9.619A2.742,2.742,0,0,0,0,11.761V30.318A2.743,2.743,0,0,0,1.236,32.46l16.071,9.279a2.743,2.743,0,0,0,2.472,0L35.852,32.46a2.743,2.743,0,0,0,1.236-2.141V11.761a2.742,2.742,0,0,0-1.236-2.141L19.78.341a2.743,2.743,0,0,0-2.472,0Z" transform="translate(0 -0.033)" fill="#c2c218"/>
    <path id="Path_26778" data-name="Path 26778" d="M21.515,3.177A3.225,3.225,0,0,0,20.284.6L19.7.263a2.662,2.662,0,0,0-2.4.044L1.236,9.586A2.743,2.743,0,0,0,0,11.727V30.285a2.742,2.742,0,0,0,1.236,2.141l13.529,7.811h0a1.99,1.99,0,0,1-.835-2.006c.081-.628.464-2.006.574-2.613" transform="translate(0 0)" fill="#121a50"/>
    <path id="Path_26779" data-name="Path 26779" d="M57.958,50.7H44.34v-.862H57.527V38.133H34.3V49.841H39.1V50.7H33.865a.431.431,0,0,1-.431-.431V37.7a.431.431,0,0,1,.431-.431H57.958a.431.431,0,0,1,.431.431v12.57a.431.431,0,0,1-.431.431" transform="translate(-23.822 -26.556)" fill="#121a50"/>
    <path id="Path_26780" data-name="Path 26780" d="M68.024,114.149H57.549a.431.431,0,0,1-.431-.431v-3.143a.431.431,0,0,1,.431-.431H68.024a.431.431,0,0,1,.431.431v3.143a.431.431,0,0,1-.431.431m-10.044-.862h9.613v-2.28H57.98Z" transform="translate(-40.697 -78.478)" fill="#121a50"/>
    <path id="Path_26781" data-name="Path 26781" d="M58.276,74.981h-.862v-2.4l-1.922-1.442a.431.431,0,0,1-.172-.345V67.124a1.666,1.666,0,0,0-1.664-1.664h-.524a.617.617,0,0,0-.616.616v4.714h-.862V66.077A1.481,1.481,0,0,1,53.131,64.6h.524a2.529,2.529,0,0,1,2.526,2.526v3.451L58.1,72.017a.431.431,0,0,1,.173.345Z" transform="translate(-36.802 -46.026)" fill="#121a50"/>
    <path id="Path_26782" data-name="Path 26782" d="M63.606,93.9H54.179a.431.431,0,0,1-.431-.431V91.555l-1.969-1.969a.432.432,0,0,1-.126-.305V86.139h.862V89.1l1.969,1.969a.432.432,0,0,1,.127.305V93.04h8.565V91.377a.432.432,0,0,1,.126-.305L65.27,89.1V86.139h.862v3.142a.432.432,0,0,1-.126.305l-1.969,1.969v1.916a.431.431,0,0,1-.431.431" transform="translate(-36.802 -61.375)" fill="#121a50"/>
    <path id="Path_26783" data-name="Path 26783" d="M93.735,57.672a2,2,0,1,1,2-2,2,2,0,0,1-2,2m0-3.143a1.14,1.14,0,1,0,1.14,1.14,1.141,1.141,0,0,0-1.14-1.14" transform="translate(-65.36 -38.238)" fill="#121a50"/>
    <path id="Path_26784" data-name="Path 26784" d="M48.518,57a2,2,0,1,1,3.382-.666l-.813-.287a1.14,1.14,0,1,0-1.926.378Z" transform="translate(-34.207 -38.239)" fill="#121a50"/>
    <path id="Path_26785" data-name="Path 26785" d="M71.873,55.35a2,2,0,0,1-2-2h.862a1.14,1.14,0,1,0,1.14-1.14,2,2,0,1,1,2-2h-.862a1.14,1.14,0,1,0-1.14,1.14,2,2,0,0,1,0,4.005" transform="translate(-49.783 -34.344)" fill="#121a50"/>
    <rect id="Rectangle_3075" data-name="Rectangle 3075" width="0.862" height="1.571" transform="translate(21.659 20.574)" fill="#121a50"/>
    <rect id="Rectangle_3076" data-name="Rectangle 3076" width="0.862" height="1.571" transform="translate(21.659 12.718)" fill="#121a50"/>
    <rect id="Rectangle_3077" data-name="Rectangle 3077" width="1.048" height="0.862" transform="translate(11.614 12.81)" fill="#121a50"/>
    <rect id="Rectangle_3078" data-name="Rectangle 3078" width="1.048" height="0.862" transform="translate(11.614 21.19)" fill="#121a50"/>
    <rect id="Rectangle_3079" data-name="Rectangle 3079" width="1.048" height="0.862" transform="translate(31.517 12.81)" fill="#121a50"/>
    <rect id="Rectangle_3080" data-name="Rectangle 3080" width="1.048" height="0.862" transform="translate(31.517 21.19)" fill="#121a50"/>
  </g>
</svg>
