<svg xmlns="http://www.w3.org/2000/svg" xmlns:xlink="http://www.w3.org/1999/xlink" width="20" height="20" viewBox="0 0 20 20"><defs><clipPath id="a"><rect width="20" height="20" fill="#24135f" stroke="#24135f" stroke-width="1"/></clipPath></defs><g clip-path="url(#a)"><g transform="translate(0.929 0.666)" fill="#24135f" stroke-miterlimit="10"><path d="M 9.19855785369873 11.54553890228271 C 7.772327899932861 11.54553890228271 6.611998081207275 10.43894863128662 6.611998081207275 9.078768730163574 C 6.611998081207275 7.718588829040527 7.772327899932861 6.611998558044434 9.19855785369873 6.611998558044434 C 10.62539768218994 6.611998558044434 11.78621768951416 7.718588829040527 11.78621768951416 9.078768730163574 C 11.78621768951416 10.43894863128662 10.62539768218994 11.54553890228271 9.19855785369873 11.54553890228271 Z" stroke="none"/><path d="M 9.19855785369873 7.111998558044434 C 8.048027992248535 7.111998558044434 7.111998558044434 7.994288444519043 7.111998558044434 9.078768730163574 C 7.111998558044434 10.16324806213379 8.048027992248535 11.04553890228271 9.19855785369873 11.04553890228271 C 10.34969806671143 11.04553890228271 11.28621864318848 10.16324806213379 11.28621864318848 9.078768730163574 C 11.28621864318848 7.994288444519043 10.34969806671143 7.111998558044434 9.19855785369873 7.111998558044434 M 9.19855785369873 6.111998558044434 C 10.90356826782227 6.111998558044434 12.28621864318848 7.440508842468262 12.28621864318848 9.078768730163574 C 12.28621864318848 10.71701812744141 10.90356826782227 12.04553890228271 9.19855785369873 12.04553890228271 C 7.494647979736328 12.04553890228271 6.111998558044434 10.71701812744141 6.111998558044434 9.078768730163574 C 6.111998558044434 7.440508842468262 7.494647979736328 6.111998558044434 9.19855785369873 6.111998558044434 Z" stroke="none" fill="#24135f"/></g><g transform="translate(0.339 0.338)" fill="#24135f"><path d="M 0.788449227809906 6.272359848022461 L 0.500099241733551 6.272359848022461 L 0.500099241733551 0.5002000331878662 L 6.201719284057617 0.5002000331878662 L 6.201719284057617 0.7381100654602051 L 1.288449287414551 0.7381100654602051 L 0.788449227809906 0.7381100654602051 L 0.788449227809906 1.238110065460205 L 0.788449227809906 6.272359848022461 Z" stroke="none"/><path d="M 9.918212890625e-05 0.0002002716064453125 L 6.701719284057617 0.0002002716064453125 L 6.701719284057617 1.238110065460205 L 1.288449287414551 1.238110065460205 L 1.288449287414551 6.772359848022461 L 9.918212890625e-05 6.772359848022461 L 9.918212890625e-05 0.0002002716064453125 Z" stroke="none" fill="#24135f"/></g><g transform="translate(1.472 0.984)" fill="#24135f"><path d="M 17.9454174041748 17.66628074645996 L 12.24379825592041 17.66628074645996 L 12.24379825592041 17.42835998535156 L 17.15706825256348 17.42835998535156 L 17.65706825256348 17.42835998535156 L 17.65706825256348 16.92835998535156 L 17.65706825256348 12.55890083312988 L 17.9454174041748 12.55890083312988 L 17.9454174041748 17.66628074645996 Z" stroke="none"/><path d="M 18.4454174041748 18.16628074645996 L 11.74379825592041 18.16628074645996 L 11.74379825592041 16.92835998535156 L 17.15706825256348 16.92835998535156 L 17.15706825256348 12.05890083312988 L 18.4454174041748 12.05890083312988 L 18.4454174041748 18.16628074645996 Z" stroke="none" fill="#24135f"/></g><g transform="translate(1.472 0.338)" fill="#24135f"><path d="M 17.9454174041748 6.272359848022461 L 17.65706825256348 6.272359848022461 L 17.65706825256348 1.238110065460205 L 17.65706825256348 0.7381100654602051 L 17.15706825256348 0.7381100654602051 L 12.24379825592041 0.7381100654602051 L 12.24379825592041 0.5002000331878662 L 17.9454174041748 0.5002000331878662 L 17.9454174041748 6.272359848022461 Z" stroke="none"/><path d="M 11.74379920959473 0.0002002716064453125 L 18.44541931152344 0.0002002716064453125 L 18.44541931152344 6.772359848022461 L 17.15706825256348 6.772359848022461 L 17.15706825256348 1.238110065460205 L 11.74379920959473 1.238110065460205 L 11.74379920959473 0.0002002716064453125 Z" stroke="none" fill="#24135f"/></g><g transform="translate(0.339 0.984)" fill="#24135f"><path d="M 6.201719284057617 17.66628074645996 L 0.500099241733551 17.66628074645996 L 0.500099241733551 12.55890083312988 L 0.788449227809906 12.55890083312988 L 0.788449227809906 16.92835998535156 L 0.788449227809906 17.42835998535156 L 1.288449287414551 17.42835998535156 L 6.201719284057617 17.42835998535156 L 6.201719284057617 17.66628074645996 Z" stroke="none"/><path d="M 6.701719284057617 18.16628074645996 L 9.923308971337974e-05 18.16628074645996 L 9.923308971337974e-05 12.05890083312988 L 1.288449287414551 12.05890083312988 L 1.288449287414551 16.92835998535156 L 6.701719284057617 16.92835998535156 L 6.701719284057617 18.16628074645996 Z" stroke="none" fill="#24135f"/></g></g></svg>