<svg xmlns="http://www.w3.org/2000/svg" xmlns:xlink="http://www.w3.org/1999/xlink" width="20.5" height="23.541" viewBox="0 0 20.5 23.541"><defs><clipPath id="a"><rect width="17.938" height="13.667" fill="#24135f"/></clipPath></defs><g transform="translate(1.281)" clip-path="url(#a)"><path d="M15.382,0H1.709a1.64,1.64,0,0,0-1.7,1.591L0,11.142a1.648,1.648,0,0,0,1.709,1.591H15.382a1.647,1.647,0,0,0,1.709-1.591V1.592A1.647,1.647,0,0,0,15.382,0m-.144,11.891H1.852A1,1,0,0,1,.9,10.851v-5.2h15.3v5.2a1,1,0,0,1-.956,1.041m.956-8.51H.9V.95h15.3Z" transform="translate(0.376 0.283)" fill="#24135f"/></g><path d="M4,0H16.5a4,4,0,0,1,4,4V8.542a0,0,0,0,1,0,0H0a0,0,0,0,1,0,0V4A4,4,0,0,1,4,0Z" transform="translate(0 14.999)" fill="#24135f"/></svg>