<svg id="Info_Icon" data-name="Info Icon" xmlns="http://www.w3.org/2000/svg" width="32" height="32" viewBox="0 0 32 32">
  <path id="Path_26820" data-name="Path 26820" d="M14.92,24h2.4V14.4h-2.4ZM16,11.44a1.3,1.3,0,0,0,.941-.368,1.221,1.221,0,0,0,.38-.912,1.337,1.337,0,0,0-.379-.969,1.326,1.326,0,0,0-1.881,0,1.334,1.334,0,0,0-.38.969,1.221,1.221,0,0,0,.379.912,1.3,1.3,0,0,0,.94.368M16.01,32a15.488,15.488,0,0,1-6.22-1.26,16.163,16.163,0,0,1-8.53-8.534A15.516,15.516,0,0,1,0,15.98,15.516,15.516,0,0,1,1.26,9.754,16.005,16.005,0,0,1,4.7,4.68,16.416,16.416,0,0,1,9.794,1.26,15.516,15.516,0,0,1,16.02,0a15.519,15.519,0,0,1,6.226,1.26,15.992,15.992,0,0,1,8.494,8.5A15.553,15.553,0,0,1,32,15.99a15.488,15.488,0,0,1-1.26,6.22,16.35,16.35,0,0,1-3.42,5.083,16.161,16.161,0,0,1-5.08,3.44A15.48,15.48,0,0,1,16.01,32" transform="translate(0 0)" fill="#fff"/>
  <rect id="Rectangle_3111" data-name="Rectangle 3111" width="31.429" height="31.429" transform="translate(0 0)" fill="none"/>
</svg>
