<svg xmlns="http://www.w3.org/2000/svg" xmlns:xlink="http://www.w3.org/1999/xlink" width="44.8" height="44.8" viewBox="0 0 44.8 44.8">
  <defs>
    <clipPath id="clip-path">
      <rect id="Rectangle_3098" data-name="Rectangle 3098" width="44.8" height="44.8" fill="#fff"/>
    </clipPath>
  </defs>
  <g id="Reports_Icon" data-name="Reports Icon" clip-path="url(#clip-path)">
    <g id="CC6__Reports_Light" transform="translate(5.499 0.807)">
      <path id="Path_26800" data-name="Path 26800" d="M7.275,25.1V3.984c0-1.08.216-1.271,1.271-1.271H31.554a1.564,1.564,0,0,1,1.271.5c2.873,2.746,5.707,5.58,8.631,8.275a1.093,1.093,0,0,1,.369.826q0,16.932,0,33.838c0,1.169-.191,1.36-1.411,1.36H8.635c-1.03,0-1.271-.229-1.271-1.271Zm1.78,0V45.182c0,.381,0,.6.521.6h29.9c.419,0,.547-.1.547-.521V13.48c0-.407-.1-.521-.534-.521H32.164c-.852,0-1.106-.254-1.119-1.093V5.014c0-.521-.114-.648-.648-.648H9.7c-.534,0-.661.127-.661.636C9.067,11.738,9.055,18.4,9.055,25.1Zm28.69-14.389-4.3-4.182a.356.356,0,0,0-.61.242v4.144c0,.28.1.369.381.369h4.309a.33.33,0,0,0,.216-.572Z" transform="translate(-7.275 -2.708)" fill="#a2aaa5"/>
      <path id="Path_26801" data-name="Path 26801" d="M8.864,24.911V4.9a.648.648,0,0,1,.661-.636H30.219c.534,0,.661.127.648.648V11.78a1.119,1.119,0,0,0,1.119,1.08h7.322a.521.521,0,0,1,.534.521q0,15.864,0,31.779c0,.419-.127.521-.547.521H9.4c-.521,0-.521-.216-.521-.6Zm12.19-5.161v2.695c0,.47-.076.661-.61.636h-2.3a.915.915,0,0,0-.941.508.9.9,0,0,0,.229,1.042,52.651,52.651,0,0,1,5.962,6.356c.61.89,1.4.839,1.97-.153a16.22,16.22,0,0,1,5.352-5.86c.636-.394.979-.864.737-1.424a.89.89,0,0,0-.928-.521H28.16c-.458,0-.572-.114-.559-.547V17.03a1.068,1.068,0,0,0-1.08-1.042H22.173c-.839,0-1.106.267-1.119,1.093s0,1.767,0,2.644Zm3.3,15.711h7.868A1.169,1.169,0,0,0,33.41,34.3c0-.953,0-1.919,0-2.873a.814.814,0,0,0-.89-.89.8.8,0,0,0-.877.89v1.945c0,.28-.1.356-.381.356H17.622c-.47,0-.585-.114-.547-.547s0-1.131,0-1.7a.88.88,0,1,0-1.754.013v2.682a1.271,1.271,0,0,0,1.271,1.271Z" transform="translate(-7.084 -2.521)" fill="#fff"/>
      <path id="Path_26802" data-name="Path 26802" d="M34.983,10.3a.343.343,0,0,1-.242.585H30.458c-.28,0-.381-.089-.381-.369V6.362a.356.356,0,0,1,.636-.242Z" transform="translate(-4.539 -2.315)" fill="#fff"/>
      <path id="Path_26803" data-name="Path 26803" d="M20.168,18.467V15.836c0-.877.28-1.093,1.119-1.093h4.36c.8,0,1.093.267,1.093,1.042v5.453c0,.432.1.572.559.547h2.364a.89.89,0,0,1,.928.521.9.9,0,0,1-.229,1.03L24.185,29.92a.915.915,0,0,1-1.462,0c-2.072-2.186-4.118-4.4-6.178-6.585a.877.877,0,0,1-.216-1.03.915.915,0,0,1,.941-.508h2.3c.534,0,.623-.165.61-.636C20.143,20.272,20.168,19.37,20.168,18.467Z" transform="translate(-6.198 -1.264)" fill="#bdb0d0"/>
      <path id="Path_26804" data-name="Path 26804" d="M23.652,32.647H16.025c-1.055,0-1.271-.267-1.271-1.271V28.681c0-.636.305-.953.877-.953s.877.318.877.941v1.7c0,.559.076.547.547.547H30.669c.28,0,.381-.076.381-.356V28.617a.8.8,0,0,1,.877-.89.814.814,0,0,1,.89.89V31.49c0,.966-.292,1.157-1.182,1.157Z" transform="translate(-6.377 0.294)" fill="#bdb0d0"/>
    </g>
  </g>
</svg>
