<svg xmlns="http://www.w3.org/2000/svg" xmlns:xlink="http://www.w3.org/1999/xlink" width="44.8" height="44.8" viewBox="0 0 44.8 44.8">
  <defs>
    <clipPath id="clip-path">
      <rect id="Rectangle_2347" data-name="Rectangle 2347" width="44.8" height="44.8" fill="#fff"/>
    </clipPath>
  </defs>
  <g id="Reprint" clip-path="url(#clip-path)">
    <g id="CC6__ReceiptReprint_Light" transform="translate(1.518 0)">
      <path id="Path_25492" data-name="Path 25492" d="M34.52,2H9.65L5.71,1.929a7.279,7.279,0,0,0,3.2,5.634V40.031a5.266,5.266,0,0,0,5.057,5.462H38.423V6.213A4.063,4.063,0,0,0,34.52,2Z" transform="translate(-2.977 -1.921)" fill="#f9f9f9"/>
      <ellipse id="Ellipse_180" data-name="Ellipse 180" cx="0.872" cy="1.191" rx="0.872" ry="1.191" transform="translate(1.8 3.678)" fill="#7b7b7b"/>
      <path id="Path_25493" data-name="Path 25493" d="M6,1.93a2.2,2.2,0,0,1,2,.945,5.867,5.867,0,0,1,1.129,2.9,13.4,13.4,0,0,1,.061,2.59v3.412H6.555a2.455,2.455,0,0,1-2.111-.957,5.622,5.622,0,0,1-1.08-2.8,7.439,7.439,0,0,1,.442-3.953A3.609,3.609,0,0,1,5.119,2.3,4.333,4.333,0,0,1,6,1.93ZM5.254,6.84a5.733,5.733,0,0,0,.246.773.466.466,0,0,0,.835.061,1.608,1.608,0,0,0,0-1.645.479.479,0,0,0-.822,0,4.112,4.112,0,0,0-.258.81Z" transform="translate(-3.27 -1.922)" fill="#d5d5d5"/>
      <path id="Path_25494" data-name="Path 25494" d="M13.5,41.809c.282-.086.577-.135.859-.233a4.039,4.039,0,0,0,2.455-2.185,7.672,7.672,0,0,0,.675-2.713,15.516,15.516,0,0,0-.258-3.756c0-.344,0-.393.368-.393H42.84c.27,0,.381.074.442.319a13.846,13.846,0,0,1,.516,4.235,5.168,5.168,0,0,1-1.154,3.2,4.3,4.3,0,0,1-3.3,1.51H35.058Z" transform="translate(-2.042 1.751)" fill="#cecece"/>
      <path id="Path_25495" data-name="Path 25495" d="M35.445,8.711H12.122a.712.712,0,0,1,0-1.412H35.445a.712.712,0,0,1,0,1.412Z" transform="translate(-2.282 -1.276)" fill="#cecece"/>
      <path id="Path_25496" data-name="Path 25496" d="M32,11.844H12.131a.7.7,0,0,1,0-1.4H32a.7.7,0,1,1,0,1.4Z" transform="translate(-2.29 -0.899)" fill="#cecece"/>
      <path id="Path_25497" data-name="Path 25497" d="M32,14.991H12.122a.712.712,0,0,1,0-1.412H32a.712.712,0,0,1,0,1.412Z" transform="translate(-2.282 -0.523)" fill="#cecece"/>
      <path id="Path_25498" data-name="Path 25498" d="M32,18.124H12.13a.687.687,0,0,1-.687-.7.7.7,0,0,1,.688-.7H32a.7.7,0,0,1,.687.7.687.687,0,0,1-.687.7Z" transform="translate(-2.289 -0.145)" fill="#cecece"/>
      <path id="Path_25499" data-name="Path 25499" d="M32,21.271H12.122a.712.712,0,0,1,0-1.412H32a.712.712,0,0,1,0,1.412Z" transform="translate(-2.282 0.231)" fill="#cecece"/>
      <path id="Path_25500" data-name="Path 25500" d="M33.1,11.844h-1.4a.7.7,0,1,1,0-1.4h1.4a.7.7,0,1,1,0,1.4Z" transform="translate(0.059 -0.899)" fill="#cecece"/>
      <path id="Path_25501" data-name="Path 25501" d="M33.1,14.991H31.7a.712.712,0,0,1,0-1.412h1.4a.712.712,0,0,1,0,1.412Z" transform="translate(0.067 -0.523)" fill="#cecece"/>
      <path id="Path_25502" data-name="Path 25502" d="M33.1,18.124H31.7a.687.687,0,0,1-.687-.7.7.7,0,0,1,.688-.7h1.4a.7.7,0,0,1,.687.7.687.687,0,0,1-.687.7Z" transform="translate(0.06 -0.145)" fill="#cecece"/>
      <path id="Path_25503" data-name="Path 25503" d="M33.1,21.271H31.7a.712.712,0,0,1,0-1.412h1.4a.712.712,0,0,1,0,1.412Z" transform="translate(0.067 0.231)" fill="#cecece"/>
      <circle id="Ellipse_181" data-name="Ellipse 181" cx="10.532" cy="10.532" r="10.532" transform="translate(0.021 23.736)" fill="#bdb0d0"/>
      <path id="Path_25504" data-name="Path 25504" d="M13.335,28.815V25.832L9.579,29.576l3.756,3.744v-3a4.493,4.493,0,1,1-4.5,4.493h-1.5a6,6,0,1,0,6-6Z" transform="translate(-2.782 0.948)" fill="#f2f2f2"/>
    </g>
  </g>
</svg>
